<svg width="248" height="236" viewBox="0 0 248 236" fill="none" xmlns="http://www.w3.org/2000/svg">
<path d="M29.096 102.906C29.5957 102.77 30.1034 102.848 30.619 103.14C31.1345 103.433 31.4578 103.899 31.5887 104.539C31.6502 104.751 31.6849 104.965 31.6928 105.179C31.7217 105.382 31.7402 105.591 31.748 105.805C31.7503 106.16 31.7911 106.685 31.8704 107.38C31.9497 108.075 32.0251 108.813 32.0968 109.595C32.1781 110.344 32.2458 111.018 32.3001 111.617C32.3544 112.217 32.3739 112.603 32.3588 112.775C32.39 113.332 32.405 113.885 32.4037 114.433C32.4023 114.981 32.3905 115.534 32.3681 116.093C32.3766 116.909 32.3478 117.732 32.2816 118.562C32.2365 119.379 32.1857 120.187 32.129 120.984C32.1179 121.263 32.0705 121.727 31.9869 122.374C31.9033 123.022 31.8139 123.659 31.7188 124.285C31.6237 124.912 31.5485 125.35 31.4932 125.599C31.4156 126.407 31.2727 127.196 31.0648 127.967C30.8568 128.737 30.6431 129.496 30.4236 130.246C30.3015 130.723 30.2071 131.075 30.1403 131.303C30.085 131.552 30.0288 131.774 29.9715 131.97C29.9258 132.186 29.8399 132.48 29.7139 132.849C29.573 133.692 29.0773 134.086 28.2268 134.032C27.7422 133.996 27.3513 133.881 27.0542 133.688C26.7897 133.505 26.6343 133.22 26.5879 132.835C26.584 132.728 26.6239 132.501 26.7078 132.154C26.7802 131.787 26.8775 131.364 26.9996 130.887C27.1312 130.377 27.2743 129.889 27.429 129.421C27.5721 128.933 27.6971 128.536 27.8041 128.231C27.9699 127.484 28.0938 126.91 28.1758 126.51C28.2577 126.11 28.3206 125.774 28.3643 125.504C27.4905 125.107 26.6452 124.612 25.8287 124.019C25.0216 123.393 24.4445 122.888 24.0974 122.503C24.0073 122.389 23.9171 122.274 23.827 122.159C23.7368 122.044 23.6362 121.935 23.525 121.832L22.0405 120.018C21.956 119.763 21.8581 119.584 21.7469 119.481C21.6452 119.345 21.5263 119.177 21.3901 118.978L18.2381 113.439C18.2957 113.545 18.2727 113.502 18.1691 113.313C18.0865 113.112 17.9694 112.848 17.8177 112.52C17.6756 112.16 17.5229 111.806 17.3597 111.458C17.1851 111.088 17.0449 110.782 16.9393 110.539C16.9143 110.443 16.8222 110.275 16.6629 110.033C16.5248 109.781 16.4555 109.504 16.4552 109.203C16.4549 108.903 16.6442 108.649 17.0233 108.441C17.3256 108.194 17.7249 108.099 18.221 108.156C18.7172 108.213 19.1474 108.374 19.5116 108.64C19.8969 108.894 20.0859 109.215 20.0786 109.602C20.075 109.795 20.1355 109.981 20.2602 110.159C20.406 110.325 20.5336 110.584 20.6432 110.934C20.7142 111.114 20.8554 111.447 21.0666 111.934C21.2873 112.387 21.5484 112.915 21.8497 113.516C22.1396 114.096 22.4284 114.649 22.7163 115.176C23.0137 115.67 23.2536 116.058 23.4358 116.341C23.3552 116.194 23.3667 116.215 23.4704 116.405C23.5835 116.561 23.7533 116.797 23.9797 117.111C24.206 117.425 24.4276 117.755 24.6444 118.101C24.8823 118.436 25.0751 118.714 25.2228 118.934C25.359 119.133 25.5623 119.405 25.8327 119.749C26.1127 120.061 26.4205 120.399 26.7561 120.762C27.1127 121.114 27.4694 121.467 27.826 121.819C28.1922 122.138 28.5248 122.421 28.8239 122.668L28.9552 121.858C28.9894 121.62 29.0246 121.409 29.0608 121.225C29.0855 121.02 29.0891 120.827 29.0717 120.645C29.0099 120.132 29.0132 119.638 29.0816 119.163C29.1501 118.687 29.1659 118.241 29.129 117.824C29.1304 117.276 29.1442 116.776 29.1705 116.324C29.2179 115.86 29.2337 115.414 29.218 114.985L29.1466 109.977C28.9752 109.113 28.8123 108.19 28.6581 107.208C28.5133 106.193 28.2758 105.283 27.9455 104.479C27.807 103.926 27.9589 103.528 28.4011 103.286C28.4011 103.286 28.4958 103.235 28.6853 103.131C28.8633 103.006 29.0002 102.931 29.096 102.906ZM42.4523 136.716C41.989 136.969 41.516 137.105 41.0334 137.122C40.5296 137.152 39.9368 137.093 39.2547 136.946C38.9691 136.774 38.6673 136.597 38.3491 136.416C38.0214 136.267 37.6937 136.117 37.3661 135.968C37.0726 135.582 36.8711 135.213 36.7615 134.863C36.6424 134.545 36.6392 134.164 36.7517 133.719C36.9136 132.865 37.2106 132.032 37.6426 131.222C38.0861 130.432 38.6484 129.66 39.3295 128.904C39.4118 128.805 39.5093 128.683 39.6222 128.539C39.735 128.395 39.8652 128.283 40.0126 128.202C40.0833 128.082 40.1588 127.945 40.2391 127.791C40.3194 127.638 40.4447 127.542 40.6152 127.504C40.5997 127.375 40.6283 127.278 40.7011 127.21C40.7853 127.164 40.881 127.139 40.9883 127.135C41.0284 127.059 41.0849 126.987 41.1576 126.92C41.2513 126.841 41.3604 126.741 41.4848 126.618C41.6092 126.495 41.7488 126.35 41.9038 126.184C42.0798 126.005 42.2817 125.799 42.5094 125.565C42.1715 124.847 41.8731 124.327 41.6142 124.003C41.3648 123.647 41.0993 123.437 40.8177 123.372C40.4268 123.257 40.1029 123.065 39.8459 122.795C39.5985 122.493 39.3042 122.23 38.963 122.006C38.7443 121.606 38.7066 121.312 38.8501 121.124C39.0146 120.925 39.2307 120.67 39.4986 120.359C39.8868 119.819 40.2549 119.166 40.6026 118.402C40.9504 117.637 41.2436 116.848 41.4822 116.033C41.7418 115.207 41.9076 114.46 41.9797 113.792C42.0156 113.307 41.8524 112.959 41.4902 112.746C41.1164 112.513 40.7075 112.491 40.2633 112.679C39.9895 112.828 39.6796 113.162 39.3335 113.68C38.9969 114.165 38.6662 114.81 38.3414 115.617C37.9818 116.06 37.6306 116.293 37.2877 116.316C36.9334 116.319 36.5108 116.071 36.0199 115.574C35.8297 115.076 35.7355 114.703 35.7371 114.456C35.7273 114.188 35.7558 113.94 35.8225 113.712C35.9104 113.473 35.9695 113.18 35.9998 112.836C36.1202 112.606 36.2243 112.371 36.3122 112.131C36.4211 111.88 36.552 111.645 36.705 111.424C36.7853 111.271 36.8877 111.133 37.012 111.01C37.1364 110.887 37.2828 110.78 37.4513 110.688C37.5566 110.63 37.6609 110.546 37.7642 110.435C37.856 110.302 37.9966 110.184 38.1861 110.081C39.3463 109.501 40.483 109.454 41.5964 109.939C42.6331 110.384 43.3492 111.019 43.7446 111.842C44.1611 112.654 44.3348 113.872 44.2657 115.496C44.2373 115.894 44.1411 116.344 43.9769 116.844C43.8127 117.344 43.6064 117.867 43.358 118.413C43.1191 118.927 42.8898 119.408 42.67 119.856C42.4386 120.283 42.258 120.628 42.128 120.891C42.4251 121.084 42.7625 121.351 43.1402 121.692C43.5064 122.011 43.863 122.363 44.2101 122.748C44.5668 123.1 44.843 123.455 45.0387 123.813C45.1842 123.679 45.3506 123.533 45.5382 123.375C45.7372 123.239 45.9105 123.131 46.0579 123.05C46.4678 123.1 46.873 123.165 47.2734 123.247C47.6949 123.318 48.0092 123.542 48.2165 123.921C48.3392 124.046 48.4065 124.269 48.4183 124.591C48.4302 124.912 48.3002 125.175 48.0284 125.378C47.7777 125.57 47.436 125.771 47.0034 125.98C46.5707 126.189 46.2367 126.454 46.0015 126.774C45.9847 127.193 46.0197 127.708 46.1066 128.317C46.2049 128.947 46.2421 129.665 46.218 130.471C46.2055 131.299 45.9929 132.236 45.5803 133.282C45.4046 133.761 45.2049 134.171 44.9811 134.512C44.7689 134.875 44.568 135.107 44.3785 135.211C44.0149 135.547 43.6714 135.844 43.348 136.103C43.0456 136.35 42.7471 136.555 42.4523 136.716ZM41.3296 134.663C41.5076 134.538 41.6798 134.403 41.8463 134.257C42.0338 134.1 42.2041 133.911 42.3571 133.69C42.5101 133.47 42.6411 133.234 42.75 132.983C42.9181 132.59 43.0603 132.075 43.1764 131.437C43.3252 130.809 43.317 130.293 43.1518 129.891C43.1153 129.775 43.074 129.674 43.0279 129.59C43.0029 129.494 42.9837 129.409 42.9702 129.334C42.7922 129.459 42.5979 129.579 42.3873 129.694C42.1768 129.809 41.9988 129.934 41.8533 130.068C41.2851 130.68 40.7983 131.315 40.3929 131.974C40.0086 132.622 39.7755 133.146 39.6936 133.547C39.6498 133.817 39.6166 134.081 39.5939 134.34C39.5501 134.61 39.5169 134.874 39.4941 135.133C39.7412 135.135 40.0247 135.103 40.3445 135.037C40.6758 134.993 41.0042 134.868 41.3296 134.663ZM58.5171 115.129C58.3486 115.221 58.228 115.301 58.1553 115.368C58.0826 115.435 57.9447 115.483 57.7417 115.512C57.5713 115.551 57.2084 115.612 56.653 115.697C56.2467 115.455 55.9246 115.166 55.6867 114.831C55.4584 114.463 55.2722 114.073 55.1281 113.659C54.9936 113.213 54.8964 112.76 54.8365 112.3C54.7766 111.841 54.7177 111.408 54.6599 111.002C54.6503 111.034 54.6245 111.062 54.5824 111.085C54.5403 111.108 54.5039 111.142 54.4733 111.186C54.3068 111.332 54.1403 111.477 53.9738 111.623C53.7958 111.748 53.6131 111.889 53.4255 112.046C53.1231 112.294 52.8313 112.535 52.55 112.771C52.2572 112.986 51.9653 113.228 51.6745 113.496C51.5883 113.488 51.4915 113.487 51.3843 113.491C51.2981 113.483 51.2176 113.486 51.1429 113.499C51.2064 113.766 51.292 114.047 51.3995 114.344C51.5071 114.641 51.6042 114.943 51.6907 115.252C51.7983 115.548 51.8848 115.857 51.9503 116.176C52.0253 116.464 52.0629 116.758 52.0632 117.058C51.6345 117.375 51.3091 117.58 51.087 117.674C50.8649 117.768 50.4925 117.863 49.9697 117.957C49.6746 117.817 49.4216 117.655 49.2107 117.469C49.0093 117.251 48.8396 117.016 48.7014 116.763C48.425 116.258 48.254 115.695 48.1882 115.074C48.1109 114.433 48.0298 113.834 47.9449 113.279C47.9025 113.001 47.8505 112.756 47.789 112.543C47.737 112.298 47.6535 112.07 47.5383 111.86C47.5574 111.795 47.5563 111.618 47.5349 111.328C47.502 111.018 47.4671 110.654 47.4303 110.237C47.3665 109.67 47.2959 109.066 47.2186 108.424C47.1413 107.782 47.0612 107.211 46.9783 106.709C46.8839 106.186 46.8069 105.845 46.7474 105.686C46.4921 105.17 46.6066 104.779 47.0909 104.514C47.3953 104.32 47.7898 104.241 48.2744 104.277C48.759 104.313 49.1882 104.447 49.562 104.681C49.9357 104.914 50.1037 105.246 50.0658 105.677C50.1102 106.008 50.1546 106.34 50.1991 106.671C50.2435 107.002 50.2936 107.344 50.3495 107.697C50.394 108.028 50.4384 108.359 50.4828 108.691C50.5272 109.022 50.5716 109.353 50.616 109.685C50.641 109.78 50.6602 109.866 50.6737 109.94C50.6872 110.015 50.6959 110.106 50.6999 110.213C50.8147 110.123 50.9295 110.033 51.0443 109.943C51.1687 109.82 51.2663 109.698 51.337 109.577C51.5476 109.462 51.8529 109.295 52.253 109.077C52.6742 108.846 53.0532 108.639 53.3901 108.455C53.6583 108.445 53.89 108.469 54.0855 108.526C54.0332 107.98 53.9809 107.434 53.9286 106.888C53.8648 106.321 53.7799 105.766 53.674 105.222C53.5776 104.646 53.4449 104.103 53.2758 103.594C53.1777 103.264 53.1659 102.942 53.2403 102.628C53.3146 102.314 53.4379 102.014 53.6099 101.729C54.1653 101.644 54.6681 101.588 55.1181 101.56C55.5893 101.522 56.0272 101.747 56.4319 102.237C56.4513 102.473 56.508 102.701 56.6021 102.924C56.6962 103.146 56.753 103.374 56.7724 103.61C56.8671 104.434 56.9628 105.284 57.0595 106.161C57.1447 107.017 57.2567 107.872 57.3955 108.726C57.5439 109.548 57.7459 110.367 58.0015 111.185C58.086 111.44 58.1495 111.706 58.192 111.984C58.2344 112.261 58.2826 112.55 58.3365 112.848C58.4 113.114 58.474 113.375 58.5586 113.63C58.6642 113.873 58.7219 114.128 58.7318 114.396C58.7301 114.644 58.6586 114.888 58.5171 115.129ZM64.2092 111.032C64.0329 110.91 63.7513 110.845 63.3643 110.837C62.9985 110.819 62.7925 110.767 62.7465 110.683C62.7004 110.599 62.5787 110.501 62.3813 110.39C62.1934 110.247 62.0343 110.156 61.904 110.118C61.7297 110.049 61.5943 109.726 61.4979 109.15C61.39 108.553 61.3088 107.804 61.2542 106.904C61.1996 106.003 61.1708 105.075 61.1679 104.12C61.2442 103.859 61.2918 103.546 61.3106 103.18C61.3293 102.814 61.3578 102.566 61.396 102.436C61.3499 102.351 61.3412 102.26 61.3698 102.163C61.3869 102.044 61.4376 101.962 61.5218 101.916L61.4982 101.272C61.4942 101.165 61.5284 100.927 61.6008 100.559C61.6943 100.18 61.8183 99.7565 61.973 99.289C62.1161 98.8004 62.2708 98.3329 62.4369 97.8865C62.6242 97.4285 62.7885 97.0787 62.93 96.8372C63.211 96.3006 63.5889 95.9162 64.0637 95.6839C64.5595 95.4401 65.0507 95.363 65.5373 95.4525C65.635 95.4811 65.841 95.5326 66.1552 95.607C66.4905 95.6699 66.8583 95.7422 67.2587 95.8242C67.6802 95.8946 68.048 95.967 68.3622 96.0414L70.1009 96.4446L70.4275 98.3176C70.6144 99.3095 70.9437 100.087 71.4155 100.649C71.8873 101.212 72.3867 101.65 72.9138 101.964C73.1457 102.138 73.3805 102.242 73.618 102.276C73.8766 102.299 74.1648 102.251 74.4827 102.132C74.6626 102.061 74.8551 102.037 75.0601 102.062C75.2651 102.087 75.4309 102.215 75.5575 102.447C75.8339 102.952 75.9407 103.372 75.8778 103.707C75.8245 104.01 75.7041 104.24 75.5165 104.397C74.8677 104.862 74.1641 105.151 73.4057 105.264C72.6473 105.378 71.7506 105.089 70.7155 104.397C70.5622 104.316 70.3198 104.148 69.9881 103.892C69.666 103.603 69.4657 103.412 69.387 103.318C69.3604 103.469 69.3194 103.669 69.2641 103.918C69.2184 104.135 69.1669 104.341 69.1096 104.536C68.4436 106.87 67.7003 108.562 66.8797 109.613C66.0687 110.631 65.1785 111.104 64.2092 111.032ZM64.5129 107.46C64.6718 107.401 64.8631 107.2 65.0869 106.859C65.2991 106.497 65.5533 105.961 65.8494 105.252C66.2314 104.25 66.5447 103.422 66.7891 102.769C67.0336 102.116 67.2042 101.352 67.301 100.479L67.3741 98.9615C66.8987 98.5923 66.5364 98.3801 66.2874 98.3248C66.0383 98.2695 65.8296 98.288 65.6611 98.3801C65.3874 98.5298 65.1588 98.8872 64.9756 99.4525C64.7808 99.9967 64.6255 100.738 64.5096 101.677C64.4033 102.583 64.326 103.692 64.2775 105.004C64.2571 105.617 64.2941 106.185 64.3885 106.708C64.4714 107.209 64.5129 107.46 64.5129 107.46ZM79.3934 102.236C78.9012 102.287 78.4367 102.212 77.9998 102.014C77.5724 101.782 77.2205 101.414 76.9441 100.909C76.829 100.698 76.6754 100.317 76.4832 99.7657C76.2911 99.2143 76.096 98.5824 75.898 97.8701C75.6999 97.1577 75.5249 96.4875 75.3729 95.8594C75.3762 95.3653 75.3059 94.9114 75.1618 94.4978C75.0387 94.0727 74.9542 93.818 74.9081 93.7338C74.812 93.4581 74.7015 93.0809 74.5765 92.6022C74.4515 92.1234 74.3495 91.6868 74.2706 91.2923C74.2012 90.8653 74.176 90.6192 74.1951 90.554C74.2428 90.3912 74.3872 90.2301 74.6284 90.0709C74.8696 89.9117 75.1395 89.8051 75.4383 89.7511C75.7255 89.6761 75.9688 89.7209 76.1682 89.8854C76.538 90.0114 76.8716 90.3213 77.169 90.8152C77.4875 91.2976 77.7152 91.939 77.852 92.7395C77.8928 93.2642 77.9739 93.8627 78.0952 94.5349C78.2166 95.2071 78.336 95.8256 78.4535 96.3906C78.5805 96.9229 78.6795 97.2791 78.7505 97.459L77.5962 98.0493C77.7699 97.5166 77.9168 96.9849 78.0369 96.4542C78.1455 95.9025 78.216 95.481 78.2482 95.1898C78.3414 94.5097 78.4279 93.9427 78.5079 93.4887C78.5974 93.002 78.726 92.412 78.8939 91.7184C79.0502 91.0038 79.3187 90.4193 79.6993 89.965C80.0685 89.4895 80.3689 89.1885 80.6005 89.0618C81.1099 88.8927 81.6529 88.9104 82.2297 89.1147C82.8159 89.2865 83.3585 89.7283 83.8572 90.4404C84.0184 90.7352 84.1769 91.0999 84.3325 91.5345C84.5091 91.9576 84.5975 92.1692 84.5975 92.1692C84.5975 92.1692 84.6508 91.8665 84.7574 91.2611C84.8851 90.6442 85.0998 89.9113 85.4015 89.0625C85.6404 88.5489 85.9378 88.1674 86.2938 87.918C86.6383 87.6476 87.0443 87.5897 87.5119 87.7444C88.2206 87.7398 88.9028 88.0369 89.5585 88.6357C90.2142 89.2346 90.7532 90.0203 91.1757 90.9928C91.4119 91.5749 91.6537 92.0171 91.9011 92.3194C92.158 92.5892 92.3977 92.8275 92.6201 93.0341C93.1011 93.2634 93.3275 93.5773 93.2992 93.9758C93.2594 94.3531 93.1657 94.5821 93.0183 94.6627C92.8078 94.7779 92.4689 94.9085 92.0017 95.0545C91.5345 95.2006 91.0643 95.2662 90.5912 95.2514C90.1391 95.2251 89.8152 95.0329 89.6195 94.675L88.5486 92.7166C88.2953 92.2534 88.09 91.928 87.9327 91.7404C87.785 91.5203 87.6517 91.4017 87.533 91.3846C87.2322 91.3849 86.9998 91.6351 86.8356 92.1352C86.6714 92.6353 86.5505 93.2895 86.4728 94.0979C86.4047 94.8737 86.3452 95.7405 86.2945 96.6983C86.2514 97.5698 86.1438 98.1484 85.9717 98.434C85.7881 98.6985 85.5402 98.8204 85.228 98.7997C84.6841 98.9056 84.2799 98.8667 84.0154 98.6831C83.7604 98.467 83.5829 98.1674 83.4829 97.7844C83.3924 97.3689 83.2655 96.8365 83.102 96.1874C82.9595 95.5267 82.8181 94.8929 82.6776 94.2858C82.5256 93.6577 82.4016 93.2058 82.3055 92.9301C82.1292 92.8077 81.953 92.8357 81.777 93.014C81.6105 93.1597 81.4623 93.3639 81.3323 93.6264C81.1717 93.9331 80.9958 94.2618 80.8047 94.6125C80.6346 94.9517 80.527 95.5303 80.4819 96.3482C80.448 96.8864 80.4055 97.4841 80.3545 98.1411C80.2919 98.7771 80.2274 99.3595 80.161 99.8882C80.1155 100.405 80.0489 100.784 79.961 101.023C80.0209 101.483 80.0165 101.8 79.9477 101.974C79.8674 102.128 79.6827 102.215 79.3934 102.236ZM95.6334 91.3863C95.3935 90.9978 95.1708 90.4904 94.9652 89.8643C94.7691 89.2056 94.6267 88.545 94.5379 87.8823C94.4375 87.1986 94.3948 86.6202 94.4096 86.1471C94.2349 85.7776 94.1637 85.4473 94.1959 85.1561C94.2377 84.8323 94.2499 84.5795 94.2325 84.3975C94.1805 84.1524 94.1504 83.7723 94.1422 83.257C94.134 82.7418 94.1469 82.215 94.1808 81.6768C94.2031 81.1174 94.2573 80.6912 94.3432 80.3981C94.2238 79.7795 94.1955 79.3026 94.2583 78.9673C94.3212 78.6321 94.4665 78.3475 94.6941 78.1136C94.832 78.0655 95.0177 78.005 95.2513 77.932C95.506 77.8474 95.8077 77.8739 96.1564 78.0114C96.2657 78.0611 96.4611 78.1184 96.7427 78.1832C97.0129 78.227 97.2879 78.4048 97.5679 78.7167C97.7752 79.0958 97.8474 79.4529 97.7845 79.7882C97.7312 80.0909 97.698 80.3552 97.6848 80.5813C97.641 80.8514 97.602 81.1052 97.5678 81.3428C97.5431 81.5477 97.5184 81.7527 97.4938 81.9577C97.4691 82.1627 97.4348 82.4002 97.3911 82.6703C97.4447 82.6684 97.4715 82.6674 97.4715 82.6674C97.4926 82.6559 97.5136 82.6443 97.5347 82.6328C97.7969 82.4621 98.1416 82.342 98.5686 82.2726C98.9957 82.2032 99.419 82.1769 99.8385 82.1937C100.246 82.1894 100.564 82.2207 100.792 82.2875C101.02 82.3543 101.265 82.4258 101.525 82.5022C101.774 82.5575 102.03 82.6501 102.293 82.78C102.565 82.8774 102.824 83.0505 103.069 83.2993C103.178 83.3489 103.355 83.4713 103.598 83.6665C103.842 83.8616 104.028 84.1018 104.156 84.387C104.191 84.4502 104.215 84.5191 104.228 84.5938C104.263 84.657 104.287 84.7259 104.3 84.8006C104.504 85.3731 104.527 85.9898 104.368 86.6508C104.199 87.2907 103.978 87.8627 103.706 88.3668C103.16 89.2676 102.575 90.0248 101.953 90.6384C101.332 91.252 100.499 91.8303 99.4557 92.3735C99.3714 92.4196 99.2977 92.4599 99.2346 92.4944C99.1714 92.529 99.1025 92.553 99.0278 92.5665C98.6889 92.6971 98.3307 92.7425 97.9534 92.7026C97.597 92.6513 97.1679 92.5167 96.6658 92.2989C96.2173 92.0791 95.8732 91.7749 95.6334 91.3863ZM98.2772 89.2431C98.6122 89.0052 98.8629 88.8134 99.0294 88.6677C99.2169 88.5104 99.4456 88.3033 99.7154 88.0463C99.8779 87.7933 100.057 87.5451 100.252 87.3016C100.435 87.0371 100.608 86.7515 100.768 86.4449C100.938 86.1057 101.037 85.7369 101.066 85.3384C101.058 85.1239 101.035 84.9314 100.996 84.761C100.946 84.5695 100.824 84.472 100.631 84.4683C100.328 84.415 100.065 84.4086 99.8409 84.4491C99.6263 84.4569 99.4033 84.5242 99.1716 84.6509C99.12 84.7065 99.0463 84.7468 98.9505 84.7718C98.8643 84.7642 98.7839 84.7672 98.7092 84.7807C98.3683 84.8576 98.1204 84.9795 97.9655 85.1463C97.8315 85.3016 97.6919 85.4464 97.5464 85.5806C97.6136 85.6533 97.6433 85.7328 97.6358 85.819C97.6493 85.8937 97.6484 86.0172 97.6333 86.1896C97.6563 86.2318 97.644 86.3342 97.5963 86.4971C97.5907 86.6369 97.6139 86.8294 97.6658 87.0745C97.7273 87.2871 97.7841 87.5159 97.8361 87.761C97.9091 87.9946 97.9659 88.2234 98.0063 88.4475C98.0313 88.5433 98.0573 88.6658 98.0843 88.8152C98.0997 88.9435 98.1641 89.0861 98.2772 89.2431ZM112.446 76.4482C112.336 75.4964 112.301 74.5579 112.343 73.6327C112.393 72.6749 112.522 71.7841 112.728 70.9603C112.943 70.1039 113.238 69.368 113.613 68.7528C113.77 68.6396 113.89 68.5332 113.972 68.4335C114.043 68.3128 114.157 68.2226 114.316 68.1631C114.115 67.9449 113.816 67.6982 113.419 67.4228C113.032 67.1148 112.629 66.8289 112.212 66.565C111.794 66.3011 111.449 66.1205 111.177 66.0231C110.914 65.8931 110.642 65.7957 110.36 65.7309C110.088 65.6335 109.832 65.514 109.59 65.3725C109.281 65.1583 109.083 64.8703 108.994 64.5084C108.894 64.1254 108.962 63.7738 109.197 63.4537C109.423 63.1662 109.644 62.8949 109.86 62.6399C110.065 62.3639 110.281 62.1089 110.509 61.875C110.746 61.6085 110.995 61.3631 111.255 61.1387C111.504 60.8932 111.758 60.6583 112.018 60.434C112.3 60.1981 112.587 59.9727 112.88 59.7579C113.13 59.5661 113.398 59.4058 113.683 59.2772C113.957 59.1275 114.242 58.9989 114.539 58.8913C115.175 58.6531 115.651 58.598 115.967 58.726C116.272 58.8329 116.688 59.0432 117.215 59.3568C117.311 59.6325 117.392 59.9571 117.46 60.3305C117.527 60.7039 117.46 61.0555 117.257 61.3851C117.152 61.4427 117.046 61.5003 116.941 61.5579C116.845 61.5829 116.739 61.6136 116.622 61.6501C116.347 61.7462 116.071 61.8423 115.795 61.9383C115.541 62.0229 115.265 62.1189 114.968 62.2265C114.692 62.3226 114.407 62.4512 114.112 62.6124C113.944 62.7045 113.686 62.859 113.34 63.0758C112.993 63.2926 112.701 63.5075 112.461 63.7203C112.232 63.9006 112.199 64.0414 112.364 64.1428C113.027 64.3547 113.593 64.5648 114.063 64.7731C114.532 64.9813 114.949 65.2184 115.313 65.4843C115.346 65.4938 115.374 65.5196 115.397 65.5618C115.429 65.5713 115.468 65.5914 115.512 65.622C115.82 65.8362 116.103 66.0782 116.36 66.348C116.617 66.6178 116.875 66.9144 117.134 67.2378C117.326 67.4885 117.513 67.7555 117.695 68.0388C117.898 68.3106 118.091 68.5881 118.273 68.8714C118.477 69.1432 118.691 69.4092 118.915 69.6694C119.116 69.8876 119.237 70.1087 119.278 70.3327C119.307 70.5358 119.353 70.7703 119.416 71.0365C119.428 71.0576 119.429 71.0844 119.419 71.117C119.431 71.138 119.448 71.1696 119.471 71.2117C119.675 71.7842 119.902 72.2753 120.154 72.6849C120.426 73.083 120.591 73.6354 120.65 74.3422C120.688 74.8133 120.727 75.2845 120.766 75.7556C120.793 76.2057 120.826 76.6663 120.865 77.1375C120.894 77.6412 120.852 78.2388 120.738 78.9304C120.624 79.622 120.428 80.2897 120.151 80.9336C119.874 81.5775 119.511 82.0902 119.064 82.4719C118.853 82.587 118.641 82.6754 118.429 82.7369C118.216 82.7984 118.009 82.8436 117.806 82.8726C116.833 82.9943 115.971 82.795 115.222 82.2748C114.461 81.7336 113.842 80.9508 113.363 79.9266C112.907 78.8909 112.601 77.7314 112.446 76.4482ZM115.165 77.2182C115.361 77.8769 115.618 78.4474 115.937 78.9298C116.255 79.4121 116.548 79.7719 116.814 80.0091C116.954 80.0147 117.094 80.0203 117.234 80.0259C117.362 80.0105 117.496 80.0055 117.636 80.0111C118.03 79.9322 118.265 79.7356 118.339 79.4214C118.435 79.0957 118.459 78.7404 118.413 78.3554C118.376 77.9379 118.353 77.595 118.343 77.3269C118.342 77.0262 118.331 76.7044 118.307 76.3616C118.305 76.0072 118.212 75.538 118.03 74.954C117.868 74.3585 117.718 73.7841 117.58 73.2307C117.462 72.6657 117.236 72.0511 116.9 71.3868C116.552 70.7015 115.96 69.9178 115.122 69.0356C115.239 69.6006 115.259 70.1369 115.181 70.6445C115.091 71.1311 115.007 71.6015 114.927 72.0555C114.856 72.477 114.811 72.9942 114.79 73.6071C114.759 74.199 114.771 74.8215 114.827 75.4746C114.893 76.0951 115.005 76.6763 115.165 77.2182ZM129.441 75.8946C129.045 76.2206 128.696 76.3838 128.396 76.3841C128.104 76.3519 127.785 76.2938 127.439 76.2099C127.01 76.2257 126.578 76.161 126.143 76.0159C125.696 75.8497 125.307 75.6385 124.975 75.3822C124.644 75.1259 124.437 74.8972 124.354 74.6962C124.014 73.9246 123.745 73.0323 123.547 72.0193C123.37 70.9947 123.277 69.9509 123.271 68.8879C123.285 67.8133 123.403 66.8047 123.626 65.8621C123.859 64.8869 124.232 64.0677 124.744 63.4044C125.073 63.0056 125.492 62.6949 125.999 62.4722C126.506 62.2495 126.942 62.271 127.306 62.5369C127.956 62.9748 128.095 63.4047 127.724 63.8265C127.661 63.861 127.605 63.9329 127.555 64.0421C127.494 64.1303 127.486 64.2165 127.532 64.3007C127.64 64.2968 127.877 64.1806 128.244 63.9523C128.6 63.7029 128.945 63.4325 129.278 63.141C129.62 62.8169 129.826 62.5677 129.895 62.3933C129.987 62.2611 130.064 62.1777 130.127 62.1431C130.19 62.1086 130.36 62.0433 130.636 61.9472C131.051 61.8568 131.299 61.8852 131.38 62.0326C131.426 62.1169 131.532 62.2365 131.699 62.3914C131.854 62.5253 131.974 62.5693 132.058 62.5232C132.217 62.4637 132.33 62.5938 132.395 62.9136C132.481 63.2219 132.395 63.6386 132.135 64.1637C131.873 64.6351 131.712 64.9418 131.653 65.0836C131.603 65.1928 131.674 65.346 131.863 65.5431C132.251 65.851 132.505 66.3411 132.626 67.0133C132.748 67.6855 132.754 68.4478 132.646 69.3003C132.538 70.1527 132.328 71.0197 132.017 71.9011C131.715 72.7499 131.341 73.5424 130.896 74.2784C130.46 74.9818 129.975 75.5205 129.441 75.8946ZM128.085 73.1896C128.169 73.1435 128.293 73.0208 128.458 72.8214C128.611 72.601 128.733 72.4246 128.825 72.2924C128.863 72.1621 128.917 72.0097 128.985 71.8354C129.064 71.6284 129.139 71.4914 129.212 71.4243C129.296 71.3782 129.332 71.3178 129.318 71.2431C129.293 71.1474 129.28 70.9492 129.28 70.6485C129.268 70.3267 129.319 69.82 129.434 69.1284C129.601 68.4349 129.674 67.9167 129.65 67.5738C129.615 67.2099 129.453 66.8883 129.164 66.609C129.097 66.5363 129.005 66.5182 128.888 66.5547C128.792 66.5797 128.648 66.5904 128.454 66.5867C128.244 66.7019 128.125 66.8351 128.098 66.9865C128.081 67.1053 127.905 67.1332 127.57 67.0704L126.719 66.715L126.476 67.5456C126.323 68.0667 126.248 68.6549 126.25 69.3099C126.274 69.9535 126.356 70.5788 126.497 71.1858C126.637 71.7928 126.796 72.3079 126.972 72.731C127.124 73.0584 127.292 73.2402 127.476 73.2764C127.66 73.3126 127.863 73.2836 128.085 73.1896ZM138.509 70.5257C138.339 70.8649 138.02 71.1075 137.553 71.2536C137.107 71.3881 136.713 71.4939 136.372 71.5709C136.261 71.4676 136.145 71.3805 136.024 71.3098C135.913 71.2065 135.802 71.1032 135.691 70.9998C135.48 70.8143 135.324 70.6535 135.222 70.5177C135.141 70.3703 135.088 70.2487 135.063 70.1529C135.002 69.9404 134.995 69.7527 135.043 69.5898C135.079 69.4059 135.142 69.221 135.232 69.0351C135.358 68.966 135.484 68.8969 135.611 68.8279C135.737 68.7588 135.863 68.6897 135.99 68.6206C136.028 68.4903 136.072 68.3705 136.122 68.2613C136.171 68.1521 136.254 68.0524 136.368 67.9622C136.565 67.4717 136.704 66.8759 136.786 66.1747C136.889 65.4621 136.947 64.7188 136.962 63.945C136.986 63.1386 136.984 62.36 136.956 61.6092C136.917 60.8373 136.866 60.1679 136.802 59.601C136.788 59.5263 136.775 59.4516 136.762 59.377C136.748 59.3023 136.74 59.2381 136.738 59.1845C136.66 59.3914 136.521 59.563 136.322 59.6992C136.144 59.8239 135.944 59.9333 135.722 60.0274C135.647 60.0409 135.579 60.0649 135.515 60.0994C135.441 60.1129 135.366 60.1264 135.291 60.1399C135.025 60.2034 134.763 60.2238 134.504 60.2011C134.267 60.1668 134.092 60.0981 133.981 59.9948C133.86 59.924 133.745 59.8638 133.636 59.8141C133.515 59.7434 133.4 59.6832 133.291 59.6335C133.256 59.2696 133.285 58.8712 133.376 58.4382C133.489 57.9937 133.68 57.643 133.949 57.386C134.353 56.9738 134.864 56.5576 135.482 56.1374C136.122 55.7058 136.796 55.3373 137.504 55.032C138.222 54.6942 138.934 54.4961 139.641 54.4379C139.748 54.434 139.855 54.43 139.963 54.4261C140.07 54.4221 140.177 54.4182 140.284 54.4142C140.499 54.4063 140.704 54.431 140.899 54.4883C141.095 54.5455 141.28 54.6085 141.454 54.6773C141.64 54.7671 141.827 54.8838 142.015 55.0272C142.212 55.1381 142.389 55.2873 142.547 55.4749C142.76 55.7141 142.953 56.0184 143.128 56.3879C143.303 56.7574 143.456 57.1384 143.589 57.5309C143.737 58.0518 143.864 58.5841 143.97 59.128C144.076 59.6718 144.174 60.1515 144.264 60.5671C144.451 61.5591 144.638 62.5511 144.825 63.543C145.021 64.5025 145.24 65.4772 145.48 66.4672C145.128 66.8238 144.734 67.0531 144.297 67.1551C143.882 67.2456 143.434 67.2029 142.955 67.0272C142.589 66.7078 142.32 66.3901 142.147 66.0742C141.963 65.7373 141.862 65.3275 141.844 64.8449C141.817 64.3948 141.715 63.9582 141.538 63.535C141.362 63.1119 141.307 62.6628 141.376 62.1877C141.284 62.0193 141.231 61.8977 141.217 61.823C141.087 61.4841 140.983 61.1442 140.906 60.8034C140.818 60.4415 140.745 60.0843 140.689 59.7319C140.655 59.368 140.599 59.0157 140.522 58.6748C140.454 58.3014 140.361 57.9557 140.242 57.6379C140.217 57.5422 140.187 57.4627 140.153 57.3995C140.107 57.3153 140.06 57.2311 140.014 57.1468C139.961 57.1488 139.786 57.2036 139.489 57.3112C139.213 57.4072 139.076 57.4821 139.078 57.5357C139.08 57.5893 139.088 57.6535 139.101 57.7282C139.124 57.7703 139.137 57.8182 139.139 57.8718C139.17 58.1284 139.206 58.3956 139.249 58.6733C139.28 58.9299 139.3 59.1923 139.31 59.4605C139.337 59.9105 139.365 60.3606 139.392 60.8107C139.44 61.2493 139.505 61.6927 139.586 62.1408C139.611 62.2365 139.634 62.429 139.655 62.7182C139.677 63.0074 139.698 63.2966 139.72 63.5858C139.729 63.854 139.736 64.0417 139.74 64.1489C139.729 64.4286 139.718 64.7082 139.707 64.9879C139.717 65.256 139.694 65.5147 139.639 65.7637C139.496 66.553 139.364 67.3634 139.245 68.1948C139.125 69.0262 138.88 69.8032 138.509 70.5257ZM148.194 62.6443C147.954 62.2557 147.732 61.7484 147.526 61.1223C147.33 60.4636 147.188 59.8029 147.099 59.1403C146.998 58.4566 146.956 57.8782 146.971 57.405C146.796 57.0356 146.725 56.7052 146.757 56.414C146.799 56.0903 146.811 55.8375 146.793 55.6555C146.741 55.4104 146.711 55.0302 146.703 54.515C146.695 53.9997 146.708 53.473 146.742 52.9347C146.764 52.3754 146.818 51.9492 146.904 51.656C146.785 51.0375 146.756 50.5606 146.819 50.2253C146.882 49.89 147.027 49.6054 147.255 49.3715C147.393 49.3235 147.579 49.263 147.812 49.1899C148.067 49.1054 148.369 49.1319 148.717 49.2694C148.827 49.3191 149.022 49.3763 149.304 49.4412C149.574 49.4849 149.849 49.6628 150.129 49.9747C150.336 50.3537 150.408 50.7109 150.345 51.0461C150.292 51.3488 150.259 51.6132 150.246 51.8392C150.202 52.1093 150.163 52.3632 150.129 52.6007C150.104 52.8057 150.079 53.0107 150.055 53.2156C150.03 53.4206 149.996 53.6582 149.952 53.9283C150.006 53.9263 150.032 53.9253 150.032 53.9253C150.054 53.9138 150.075 53.9023 150.096 53.8908C150.358 53.72 150.703 53.6 151.13 53.5305C151.557 53.4611 151.98 53.4348 152.399 53.4516C152.807 53.4474 153.125 53.4786 153.353 53.5454C153.581 53.6122 153.826 53.6838 154.086 53.7601C154.335 53.8154 154.591 53.908 154.854 54.038C155.126 54.1354 155.385 54.3085 155.63 54.5572C155.739 54.6069 155.916 54.7293 156.159 54.9244C156.402 55.1195 156.589 55.3597 156.717 55.645C156.752 55.7081 156.776 55.7771 156.789 55.8518C156.824 55.9149 156.848 55.9839 156.861 56.0585C157.065 56.631 157.088 57.2478 156.929 57.9088C156.76 58.5487 156.539 59.1207 156.267 59.6247C155.721 60.5255 155.136 61.2827 154.514 61.8963C153.893 62.5099 153.06 63.0883 152.017 63.6315C151.932 63.6775 151.859 63.7178 151.796 63.7524C151.732 63.7869 151.663 63.8109 151.589 63.8244C151.25 63.955 150.892 64.0004 150.514 63.9606C150.158 63.9093 149.729 63.7747 149.227 63.5569C148.778 63.3371 148.434 63.0329 148.194 62.6443ZM150.838 60.501C151.173 60.2632 151.424 60.0714 151.59 59.9256C151.778 59.7683 152.007 59.5612 152.276 59.3043C152.439 59.0513 152.618 58.803 152.813 58.5596C152.996 58.2951 153.169 58.0095 153.329 57.7028C153.499 57.3636 153.598 56.9948 153.627 56.5964C153.619 56.3819 153.596 56.1894 153.557 56.019C153.507 55.8275 153.385 55.7299 153.192 55.7263C152.889 55.673 152.626 55.6666 152.402 55.707C152.187 55.7149 151.964 55.7822 151.733 55.9088C151.681 55.9644 151.607 56.0047 151.511 56.0298C151.425 56.0222 151.345 56.0251 151.27 56.0386C150.929 56.1156 150.681 56.2375 150.526 56.4043C150.392 56.5596 150.253 56.7044 150.107 56.8386C150.175 56.9113 150.204 56.9908 150.197 57.077C150.21 57.1516 150.209 57.2752 150.194 57.4476C150.217 57.4897 150.205 57.5922 150.157 57.7551C150.152 57.8949 150.175 58.0874 150.227 58.3325C150.288 58.545 150.345 58.7739 150.397 59.019C150.47 59.2526 150.527 59.4814 150.567 59.7055C150.592 59.8012 150.618 59.9238 150.645 60.0731C150.661 60.2015 150.725 60.3441 150.838 60.501ZM162.954 57.3222C162.452 57.4051 161.926 57.3922 161.374 57.2836C160.811 57.154 160.36 56.8806 160.023 56.4634C160 56.4212 159.977 56.3791 159.954 56.337C159.919 56.2738 159.881 56.2538 159.839 56.2768C159.639 56.1123 159.461 55.7859 159.303 55.2976C159.134 54.7883 158.978 54.2033 158.836 53.5427C158.715 52.8705 158.62 52.1973 158.552 51.5232C158.494 50.8164 158.476 50.1834 158.498 49.6241C158.497 49.5705 158.495 49.5168 158.493 49.4632C158.479 49.3885 158.471 49.3244 158.469 49.2707C158.408 49.0582 158.333 48.6206 158.244 47.958C158.176 47.2838 158.115 46.647 158.061 46.0475C158.037 45.7047 158.027 45.4097 158.028 45.1626C158.018 44.8945 158.017 44.7173 158.025 44.6311C158.147 44.1541 158.368 43.8828 158.688 43.8173C158.996 43.7308 159.341 43.7611 159.722 43.9082C160.124 44.0437 160.502 44.2339 160.855 44.4787C161.207 44.7235 161.479 44.9445 161.669 45.1415C161.594 45.7565 161.556 46.4614 161.553 47.2563C161.571 48.0397 161.612 48.8652 161.676 49.7328C161.75 50.5678 161.845 51.3913 161.96 52.2033C162.086 52.9828 162.219 53.676 162.359 54.2831C162.476 54.2465 162.66 54.1324 162.91 53.9406C163.182 53.7372 163.475 53.5224 163.789 53.2961C164.091 53.0487 164.389 52.8175 164.682 52.6027C164.963 52.3668 165.188 52.2028 165.356 52.1107C165.264 51.9422 165.192 51.7354 165.14 51.4903C165.109 51.2337 165.089 50.9713 165.079 50.7031C165.048 50.4465 165.017 50.1899 164.986 49.9332C164.976 49.6651 164.947 49.4353 164.897 49.2438C164.858 49.0734 164.775 48.722 164.648 48.1896C164.542 47.6458 164.43 47.0646 164.31 46.446C164.212 45.8159 164.127 45.2606 164.056 44.7799C163.973 44.2781 163.946 43.9784 163.974 43.8807C164.043 43.7063 164.128 43.5367 164.229 43.3719C164.352 43.1955 164.481 43.0565 164.617 42.9548C164.916 42.9009 165.179 42.9073 165.407 42.9741C165.645 43.0083 165.862 43.0809 166.059 43.1918C166.278 43.2911 166.508 43.4116 166.749 43.5531C167.014 43.7367 167.188 43.9558 167.273 44.2104C167.346 44.444 167.421 44.7313 167.498 45.0721C167.479 45.1373 167.486 45.325 167.519 45.6353C167.54 45.9245 167.584 46.2558 167.652 46.6292C167.719 47.0026 167.786 47.3493 167.851 47.6691C167.917 47.9889 167.962 48.1966 167.987 48.2924C167.974 48.5184 167.977 48.7492 167.996 48.9848C168.004 49.1993 168.028 49.4186 168.069 49.6427C168.094 49.7384 168.113 49.8236 168.127 49.8983C168.14 49.973 168.149 50.064 168.153 50.1712C168.193 50.0946 168.312 49.9881 168.512 49.8519C168.699 49.6947 168.892 49.5479 169.091 49.4117C169.312 49.264 169.464 49.1671 169.548 49.1211C169.617 48.9467 169.642 48.7685 169.625 48.5866C169.617 48.3721 169.567 48.1806 169.475 48.0121C169.492 47.8933 169.476 47.6147 169.428 47.1761C169.38 46.7375 169.325 46.2616 169.263 45.7483C169.189 45.214 169.118 44.7333 169.049 44.3062C168.979 43.8792 168.922 43.6235 168.875 43.5393C168.936 43.1504 168.917 42.7645 168.817 42.3815C168.705 41.9775 168.616 41.5887 168.548 41.2153C168.682 41.06 168.816 40.9047 168.95 40.7494C169.072 40.5731 169.179 40.392 169.268 40.2061C170.125 40.1209 170.914 40.2637 171.636 40.6345C171.761 40.8125 171.875 40.9963 171.979 41.1858C172.082 41.3753 172.197 41.5591 172.321 41.7371C172.314 42.124 172.323 42.5157 172.348 42.9122C172.383 43.276 172.44 43.6552 172.519 44.0497C172.66 44.6568 172.785 45.2858 172.895 45.937C173.026 46.5766 173.119 47.2229 173.175 47.876C173.253 48.5176 173.303 49.1602 173.327 49.8037C173.354 49.9531 173.364 50.0977 173.359 50.2375C173.353 50.3774 173.342 50.5067 173.325 50.6254C173.279 50.8419 173.21 51.0163 173.119 51.1486C173.027 51.2808 172.897 51.393 172.728 51.4851C172.581 51.5657 172.395 51.6263 172.171 51.6667C171.935 51.6861 171.672 51.6797 171.381 51.6475C171.308 51.7146 171.231 51.798 171.148 51.8977C171.087 51.9858 171.026 52.074 170.965 52.1622C170.731 52.2352 170.531 52.3446 170.365 52.4904C170.219 52.6246 170.031 52.755 169.799 52.8817C169.399 53.1005 168.917 53.4189 168.352 53.8371C167.787 54.2553 167.197 54.7012 166.581 55.175C165.89 55.6622 165.214 56.1274 164.554 56.5706C163.903 56.9812 163.37 57.2317 162.954 57.3222ZM182.024 47.0994C181.019 47.2115 180.151 46.9749 179.42 46.3896C178.69 45.8043 178.053 44.8396 177.509 43.4955C177.195 42.8197 176.937 42.3996 176.738 42.2351C176.527 42.0495 176.248 41.9147 175.902 41.8308C175.792 41.7811 175.57 41.7249 175.235 41.662C174.888 41.5781 174.696 41.4778 174.66 41.361C174.558 41.2251 174.492 41.0288 174.461 40.7722C174.419 40.4945 174.423 40.3278 174.475 40.2722C174.588 40.1285 174.695 39.9742 174.796 39.8093C174.919 39.633 175.033 39.5428 175.141 39.5389C175.225 39.4928 175.38 39.4764 175.606 39.4896C175.853 39.4912 176 39.5342 176.046 39.6184C176.211 39.7197 176.302 39.5875 176.321 39.2216C176.361 38.8442 176.371 38.3874 176.351 37.8511C176.378 37.399 176.468 36.9392 176.623 36.4717C176.777 36.0042 176.949 35.5682 177.139 35.1639C177.337 34.727 177.518 34.382 177.68 34.129C177.763 34.0293 177.928 33.8567 178.177 33.6113C178.447 33.3544 178.739 33.1127 179.052 32.8864C179.355 32.6389 179.596 32.4797 179.776 32.4087C180.167 32.2224 180.653 32.1616 181.235 32.2261C181.818 32.2906 182.294 32.3859 182.664 32.5119C183.041 32.5517 183.381 32.7486 183.684 33.1027C183.997 33.4241 184.258 33.8012 184.467 34.2338C184.676 34.6665 184.788 35.0705 184.801 35.4459C184.853 35.6911 184.793 36.1068 184.622 36.6931C184.45 37.2794 184.23 37.8782 183.963 38.4895C183.705 39.0682 183.452 39.5071 183.206 39.8062C182.967 40.019 182.669 40.2501 182.313 40.4995C181.945 40.7278 181.587 40.9236 181.239 41.0868C180.9 41.2174 180.65 41.2856 180.489 41.2916C180.296 41.2879 180.187 41.3886 180.162 41.5936C180.147 41.766 180.269 42.1643 180.528 42.7884C180.634 43.0316 180.743 43.2316 180.856 43.3885C180.991 43.534 181.102 43.6373 181.19 43.6985C181.476 43.8706 181.727 43.9795 181.943 44.0252C182.148 44.0499 182.439 43.9318 182.816 43.6709C183.193 43.41 183.461 42.9491 183.619 42.2881C183.787 41.5945 183.965 41.0188 184.152 40.5608C184.155 40.3673 184.283 40.1747 184.533 39.9829C184.794 39.7585 185.152 39.5896 185.61 39.4761C185.922 39.4968 186.154 39.6709 186.306 39.9982C186.479 40.3141 186.564 40.8695 186.561 41.6644C186.578 41.8463 186.52 42.1653 186.386 42.6213C186.262 43.0447 186.112 43.496 185.937 43.975C185.771 44.4215 185.617 44.7655 185.475 45.007C185.028 45.6893 184.493 46.1869 183.871 46.4998C183.249 46.8127 182.633 47.0125 182.024 47.0994ZM180.475 38.7144C180.745 38.4574 180.962 38.2293 181.127 38.0299C181.312 37.819 181.458 37.5612 181.565 37.2566C181.672 36.9519 181.759 36.5352 181.825 36.0065C181.783 35.7288 181.716 35.5057 181.624 35.3373C181.553 35.1573 181.484 35.0578 181.419 35.0387C181.159 34.9623 180.94 35.0133 180.764 35.1917C180.598 35.3374 180.445 35.5578 180.305 35.853C180.193 35.9967 180.057 36.2488 179.898 36.609C179.749 36.9367 179.617 37.296 179.503 37.6869C179.398 38.0451 179.329 38.3699 179.297 38.6611C179.274 38.9197 179.317 39.047 179.424 39.043C179.428 39.1503 179.572 39.1396 179.858 39.011C180.164 38.8708 180.37 38.772 180.475 38.7144Z" fill="#99CC00"/>
<path d="M68.0755 154.592C79.8373 139.841 105.814 113.988 128.28 110.579M192.455 85.531L204.027 95.7166C204.932 96.513 204.875 97.9399 203.91 98.6619L190.992 108.327M204.723 97.1513C168.486 93.4793 142.748 100.222 129.092 110.209M140.478 111.264C170.952 120.519 139.258 158.524 122.304 139.36C115.872 132.09 116.4 123.221 123.302 115.413C126.441 111.863 131.209 110.262 135.937 110.578C137.623 110.691 139.274 110.898 140.478 111.264Z" stroke="#99CC00" stroke-width="3.32246" stroke-linecap="round"/>
</svg>
