<svg xmlns="http://www.w3.org/2000/svg" width="101" height="52" viewBox="0 0 101 52" fill="none">
  <g clip-path="url(#clip0_102_1536)">
    <path d="M44.5445 14.1077C42.3852 13.2411 38.7631 12.0971 36.3252 11.3344C35.4893 8.42239 33.121 6.20372 30.1955 5.54505C31.0314 5.40639 31.7279 5.26772 32.2852 5.05972C33.8176 4.50505 33.9917 3.32639 33.9917 2.87572C33.9917 1.31572 32.6335 0.275721 29.8821 -0.278945C29.4293 -0.382945 28.9766 -0.417612 28.5586 -0.417612C26.5386 -0.417612 23.6131 0.553055 21.2797 5.16372C21.001 5.71839 21.001 6.34239 21.2448 6.89705C20.2 6.13439 18.981 5.64905 17.6924 5.44105C18.7721 4.81705 19.399 4.08905 19.3641 3.01439C19.2597 1.24639 17.1352 0.657055 16.1948 0.414388C15.6724 0.275721 15.1152 0.206388 14.5928 0.206388C11.6324 0.206388 8.98552 2.49439 7.13965 6.65439C6.86103 7.31305 6.89586 8.04105 7.27896 8.63039C7.66207 9.21972 8.32379 9.56639 9.02034 9.56639H9.05517C8.39345 10.7797 7.97551 12.1664 7.97551 13.6224C7.97551 14.0037 8.01034 14.3851 8.04517 14.7664C7.76655 14.7664 7.48793 14.7664 7.24414 14.7664C5.67689 14.7664 5.11965 14.8357 4.84103 14.9051C3.86586 15.1131 3.09965 15.6331 2.57724 16.4651C1.63689 17.9904 1.60207 20.3477 2.54241 23.9184C3.76138 28.6331 4.28379 29.6037 5.99034 30.1584C6.02517 30.1584 6.06 30.1931 6.09483 30.1931C6.58241 30.3664 7.97551 30.5397 9.22931 30.6437C9.22931 31.1984 9.26414 31.6837 9.33379 32.0997L8.63724 33.8677C8.60241 33.8677 8.56758 33.8677 8.56758 33.8677C8.56758 33.8677 8.56758 33.8677 8.53276 33.8677C7.73172 33.8677 6.96552 34.2144 6.4431 34.8037C5.88586 35.3931 5.60724 36.1904 5.67689 36.9877C5.8162 38.7557 6.89586 41.5984 7.76655 43.8864L7.8362 44.0944C9.05517 47.3184 9.99551 48.1504 10.6921 48.5317C11.8762 49.1557 13.7569 49.2944 18.7372 49.2944C19.8866 49.2944 21.21 49.2944 22.7424 49.2944C24.5186 49.2944 26.5735 49.2944 28.9069 49.2597H28.9417C29.2552 49.2597 29.6035 49.2597 29.9169 49.2597C30.2303 49.2597 30.5438 49.2597 30.8572 49.2597C31.2403 49.2597 31.6235 49.2597 31.9717 49.2597C32.32 49.2597 32.6334 49.2597 32.9817 49.2597C34.8276 49.2597 37.37 49.2597 38.4148 47.3531C38.7979 46.6597 39.599 44.7877 40.191 42.9504C41.3055 39.5184 41.1662 38.3744 40.609 37.5771C39.8776 36.5717 38.589 36.3637 37.5093 36.1904C38.1014 35.1504 38.9372 33.6944 39.7383 32.2384C40.4697 30.9557 41.201 29.6731 41.8279 28.5984C44.1614 24.4731 46.3555 18.7184 46.4252 18.4757C47.1566 16.7077 46.2859 14.8011 44.5445 14.1077ZM5.57241 28.0091C5.64207 28.1131 5.67689 28.1824 5.74655 28.2517C5.71172 28.1824 5.64207 28.1131 5.57241 28.0091ZM22.7076 5.85705C23.5434 4.22772 25.3893 1.14239 28.5586 1.14239C28.8721 1.14239 29.2203 1.17705 29.6034 1.24639C31.7279 1.66239 32.4245 2.28639 32.4245 2.84105C32.4245 3.81172 30.6134 3.74239 27.5138 4.40105C25.6331 4.81705 24.3097 5.75305 23.2997 6.37705C23.23 6.41172 23.1603 6.44639 23.0907 6.44639C22.7772 6.48105 22.5334 6.16905 22.7076 5.85705ZM8.60241 7.27839C9.61241 5.02505 11.5976 1.76639 14.6276 1.76639C15.0107 1.76639 15.3938 1.80105 15.8117 1.93972C20.6179 3.25705 15.5679 4.64372 12.7121 5.85705C11.4583 6.37705 10.2741 7.20905 9.40345 7.86772C9.29896 7.93705 9.19448 7.97172 9.09 7.97172C8.70689 7.97172 8.42827 7.65972 8.60241 7.27839ZM8.56758 35.4277C8.60241 35.4277 8.60241 35.4277 8.63724 35.4277C8.63724 35.4624 8.60241 35.4277 8.56758 35.4277ZM18.8069 47.6997C18.7721 47.6997 18.7372 47.6997 18.7024 47.6997C18.8069 47.6997 18.9114 47.6997 19.0159 47.6997C18.9462 47.6997 18.8766 47.6997 18.8069 47.6997ZM33.0514 47.6651C33.0166 47.6651 33.0166 47.6651 32.9817 47.6651C33.0166 47.6651 33.0514 47.6651 33.0514 47.6651Z" fill="#DBEFA9"/>
    <path d="M11.8762 32.2731L9.92586 35.6011L9.89103 35.7051C9.92586 35.7051 9.96068 35.7397 9.99551 35.7397C12.0503 36.3984 21.9065 37.0224 23.7872 36.8491C25.6679 36.7104 30.9617 26.8997 30.8921 26.2411C30.8572 25.5824 27.5486 25.6171 24.7276 25.8597C23.3345 25.9637 22.7424 27.3157 22.4986 28.0091C22.3941 28.3211 22.1503 28.5637 21.8369 28.6677C19.6776 29.4997 15.1848 29.4651 11.5976 29.2224C11.5628 30.5397 11.5279 31.8917 11.8762 32.2731Z" fill="white"/>
    <path d="M43.9524 15.5637C40.6786 14.2811 33.8524 12.2011 33.8524 12.2011C33.8524 12.2011 31.7628 7.69439 27.8621 7.69439C23.9614 7.69439 22.3245 11.2304 22.3245 11.2304C22.3245 11.2304 21.4886 7.65972 15.2545 7.65972C10.2393 7.65972 9.61241 14.1771 10.4134 16.3957C10.4134 16.3957 6.12965 16.2224 5.1893 16.4304C4.24896 16.6384 2.54241 17.4704 4.10965 23.5371C5.39827 28.5637 5.74655 28.3904 6.65206 28.7024C7.4531 28.9797 17.2396 30.0544 21.3493 28.9104C21.9414 28.7371 22.429 28.3211 22.6728 27.7317C22.9514 27.0037 23.5783 25.9637 24.7972 25.8944C27.6531 25.6864 30.9269 25.6517 30.9617 26.2757C30.9965 26.9344 26.0162 36.8491 24.1355 36.9877C22.2548 37.1264 12.0852 36.3637 10.0652 35.7397C9.54275 35.5664 9.08999 35.4971 8.74172 35.4624C7.94068 35.3931 7.34861 36.1557 7.59241 36.9184C8.53275 39.7264 10.7617 46.7291 11.5279 47.0757C12.921 47.7691 25.25 47.6304 29.0114 47.6651C32.9121 47.6997 36.4296 47.7344 37.161 46.5904C37.8924 45.4464 40.0517 39.2411 39.4597 38.5131C38.8676 37.7851 35.0365 38.2704 34.9321 37.3344C34.8276 36.3984 38.8328 30.8864 40.5741 27.8704C42.8728 23.8144 45.0669 17.9557 45.0669 17.9557C45.3455 16.9851 44.8928 15.9451 43.9524 15.5637Z" fill="#99CC00"/>
    <path d="M9.36862 7.86772C8.95068 8.17972 8.39344 7.72906 8.60241 7.27839C9.71689 4.74772 12.12 0.934389 15.7769 1.90506C20.5831 3.22239 15.5331 4.60906 12.6772 5.82239C11.4234 6.37706 10.2393 7.20906 9.36862 7.86772Z" fill="black"/>
    <path d="M23.2997 6.41172C22.9514 6.65439 22.4986 6.23839 22.7076 5.85705C23.6131 4.05439 25.7724 0.483721 29.6034 1.24639C31.7279 1.66239 32.4245 2.28639 32.4245 2.84105C32.4245 3.81172 30.6134 3.74239 27.5138 4.40105C25.6331 4.81705 24.2748 5.78772 23.2997 6.41172Z" fill="black"/>
    <path d="M43.9524 15.5637C41.5145 14.5931 37.0914 13.2064 35.0017 12.5477C34.4793 9.35839 31.6931 6.89706 28.3148 6.89706C25.7376 6.89706 23.5086 8.35306 22.3593 10.4331C21.21 8.31839 18.981 6.89706 16.4038 6.89706C12.6772 6.89706 9.61241 9.91306 9.61241 13.6571C9.61241 14.6624 9.82137 15.5984 10.2393 16.4304C9.75172 16.4304 8.4631 16.3611 7.31379 16.3611C6.40827 16.3611 5.57241 16.3957 5.22413 16.4651C4.28379 16.6731 2.57724 17.5051 4.14448 23.5717C5.4331 28.5984 5.78137 28.4251 6.68689 28.7371C7.00034 28.8411 8.74172 29.0837 10.9707 29.2571C10.8662 30.4357 10.8662 31.5797 11.11 32.2731L9.75172 35.6357C9.57758 35.6011 8.91586 35.4971 8.63724 35.4971C7.90586 35.4971 7.27896 36.1557 7.34862 36.9184C7.48793 38.5131 8.60241 41.3904 9.40344 43.5744C10.1697 45.6197 10.901 46.8331 11.5279 47.1797C12.921 47.9077 16.9262 47.7344 29.0114 47.6997C29.6731 47.6997 30.3696 47.6997 30.9965 47.6997C34.0265 47.6997 36.4645 47.9077 37.161 46.6251C37.8228 45.4464 40.1562 39.4837 39.4597 38.5477C38.589 37.3691 34.7579 38.1664 35.5241 36.7451C35.9769 35.8784 38.8328 30.9211 40.5741 27.8704C42.8728 23.8144 45.0669 17.9557 45.0669 17.9557C45.3455 16.9851 44.8928 15.9451 43.9524 15.5637ZM11.5628 34.9077C11.6672 34.6651 11.8762 34.1451 12.12 34.0064C13.1996 33.3477 14.2793 33.1397 15.4286 32.7931C15.6724 32.7237 15.6724 32.3771 15.359 32.3424C14.4534 32.3077 13.4434 32.1691 12.9907 31.8571C12.6772 31.6491 12.5379 31.3024 12.5379 30.9557C12.5379 30.5051 12.5379 29.9504 12.6076 29.3611C13.7221 29.4304 14.6972 29.4304 15.8465 29.4304C18.3193 29.4304 20.6528 29.2571 21.9762 28.6677C22.2548 28.5637 22.429 28.3211 22.5334 28.0784C22.7424 27.3851 23.3693 25.9984 24.7624 25.8944C25.8769 25.8251 27.0262 25.7557 28.0362 25.7557C29.6383 25.7557 30.8921 25.8944 30.9269 26.2757C30.9617 26.5531 29.9517 28.5637 28.6283 30.7131C28.6283 30.7131 25.1803 33.2784 21.8717 32.8277C21.6628 32.7931 21.5583 33.0704 21.7324 33.1744C22.7424 33.8677 24.6579 34.9424 26.1207 34.4571H26.1555C25.2152 35.7397 24.3096 36.6411 23.7524 36.6757C23.5086 36.7104 23.1255 36.7104 22.6379 36.7104C16.7172 36.8144 11.1796 35.8784 11.1796 35.8784L11.5628 34.9077ZM9.54275 37.5424C12.4334 38.0971 19.7821 38.6517 23.9265 38.4784C25.041 38.4437 26.5038 37.6117 29.6383 32.6197C31.7628 29.1877 32.8424 27.0037 32.7728 26.1371C32.5986 23.9531 29.7776 23.9531 28.1059 23.9531C26.8521 23.9531 25.5634 24.0224 24.6928 24.0917C22.7772 24.2304 21.6628 25.6171 21.1055 26.8997C21.0359 27.0731 20.8965 27.1771 20.7224 27.2464C19.9214 27.4544 18.4586 27.6624 15.8814 27.6624C14.8017 27.6624 11.2841 27.4891 7.62724 27.0384C7.27896 27.0037 6.96551 26.7611 6.8262 26.4144C6.61724 25.8597 6.30379 24.8544 5.85103 23.1211C4.8062 19.0997 5.36344 18.3717 5.50275 18.2331C5.71172 18.0251 5.99034 18.0944 7.31379 18.0944C8.77655 18.0944 10.4134 18.1984 10.4483 18.1984C11.11 18.2331 11.4931 18.2677 11.4931 18.2677C12.7121 19.5504 14.4534 20.3824 16.4038 20.3824C18.981 20.3824 21.21 18.9264 22.3593 16.8464C23.5086 18.9611 25.7376 20.3824 28.3148 20.3824C31.7628 20.3824 34.6534 17.7824 35.0365 14.4544C35.0365 14.4544 37.8576 15.1131 42.2807 16.8811C42.8728 17.1237 43.1165 17.7477 42.9076 18.3371C42.1065 20.7637 40.4697 24.0917 38.9372 27.0037C35.7679 33.0357 33.1907 36.4331 33.0862 37.5424C32.9121 39.2757 35.141 39.3104 36.7083 39.5531C37.1959 39.6224 37.579 39.6224 37.6138 39.9691C37.6834 40.4891 36.6038 43.3317 36.0814 44.6491C35.8376 45.2384 35.2803 45.7237 34.6534 45.7931C32.5986 46.0011 14.7669 46.2091 13.0603 45.6544C12.7817 45.5504 12.5379 45.4464 12.329 45.2384C11.319 44.1984 9.71689 40.4197 9.36862 37.8544C9.29896 37.5424 9.54275 37.5424 9.54275 37.5424Z" fill="black"/>
    <path d="M16.369 18.4757C19.0618 18.4757 21.2448 16.3028 21.2448 13.6224C21.2448 10.942 19.0618 8.76905 16.369 8.76905C13.6761 8.76905 11.4931 10.942 11.4931 13.6224C11.4931 16.3028 13.6761 18.4757 16.369 18.4757Z" fill="white"/>
    <path d="M28.3148 18.4757C31.0077 18.4757 33.1907 16.3028 33.1907 13.6224C33.1907 10.942 31.0077 8.76905 28.3148 8.76905C25.622 8.76905 23.439 10.942 23.439 13.6224C23.439 16.3028 25.622 18.4757 28.3148 18.4757Z" fill="white"/>
    <path d="M16.369 15.9104C17.523 15.9104 18.4586 14.9791 18.4586 13.8304C18.4586 12.6816 17.523 11.7504 16.369 11.7504C15.2149 11.7504 14.2793 12.6816 14.2793 13.8304C14.2793 14.9791 15.2149 15.9104 16.369 15.9104Z" fill="black"/>
    <path d="M28.3148 15.9104C29.4689 15.9104 30.4045 14.9791 30.4045 13.8304C30.4045 12.6816 29.4689 11.7504 28.3148 11.7504C27.1607 11.7504 26.2252 12.6816 26.2252 13.8304C26.2252 14.9791 27.1607 15.9104 28.3148 15.9104Z" fill="black"/>
    <path d="M65.0928 24.8891V26.2757H57.4307V25.1664L62.7245 18.7531H57.5352V17.3664H64.9186V18.4757L59.6248 24.8891H65.0928Z" fill="#99CC00"/>
    <path d="M68.2272 25.8251C67.4959 25.4437 66.9038 24.8891 66.4859 24.1957C66.0679 23.5024 65.859 22.7051 65.859 21.8384C65.859 20.9717 66.0679 20.1744 66.4859 19.4811C66.9038 18.7877 67.4959 18.2331 68.2272 17.8517C68.9586 17.4704 69.7945 17.2624 70.7 17.2624C71.6055 17.2624 72.4414 17.4704 73.1728 17.8517C73.9041 18.2331 74.4962 18.7877 74.9141 19.4811C75.3321 20.1744 75.541 20.9717 75.541 21.8384C75.541 22.7051 75.3321 23.5024 74.9141 24.1957C74.4962 24.8891 73.9041 25.4437 73.1728 25.8251C72.4414 26.2064 71.6055 26.4144 70.7 26.4144C69.7945 26.4144 68.9586 26.2064 68.2272 25.8251ZM72.3021 24.5424C72.7897 24.2651 73.1728 23.8837 73.4165 23.4331C73.6952 22.9477 73.8345 22.4277 73.8345 21.8037C73.8345 21.2144 73.6952 20.6597 73.4165 20.1744C73.1379 19.6891 72.7548 19.3077 72.3021 19.0651C71.8145 18.7877 71.2921 18.6491 70.7 18.6491C70.1079 18.6491 69.5507 18.7877 69.0979 19.0651C68.6103 19.3424 68.2272 19.7237 67.9834 20.1744C67.7048 20.6597 67.5655 21.1797 67.5655 21.8037C67.5655 22.3931 67.7048 22.9477 67.9834 23.4331C68.2621 23.9184 68.6452 24.2997 69.0979 24.5424C69.5855 24.8197 70.1079 24.9584 70.7 24.9584C71.2921 24.9584 71.8145 24.8197 72.3021 24.5424Z" fill="#99CC00"/>
    <path d="M83.1683 26.2757L81.3224 23.6757C81.2528 23.6757 81.1134 23.6757 80.9741 23.6757H78.9541V26.2757H77.2824V17.3664H80.9741C81.7403 17.3664 82.4369 17.5051 82.9941 17.7477C83.5862 17.9904 84.0041 18.3717 84.3176 18.8571C84.631 19.3424 84.7703 19.8971 84.7703 20.5557C84.7703 21.2144 84.5962 21.8037 84.2828 22.2891C83.9693 22.7744 83.4817 23.1211 82.8548 23.3637L84.9097 26.3104H83.1683V26.2757ZM82.5762 19.2037C82.1931 18.8917 81.6359 18.7531 80.9393 18.7531H78.989V22.3237H80.9393C81.6707 22.3237 82.2279 22.1851 82.5762 21.8731C82.9593 21.5611 83.1334 21.1104 83.1334 20.5557C83.1334 20.0011 82.9593 19.5157 82.5762 19.2037Z" fill="#99CC00"/>
    <path d="M92.8155 21.7344H94.3828V25.3051C93.93 25.6864 93.3728 25.9637 92.7807 26.1371C92.1538 26.3451 91.5269 26.4144 90.9 26.4144C89.9945 26.4144 89.1586 26.2064 88.4272 25.8251C87.6959 25.4437 87.1038 24.8891 86.6859 24.1957C86.2679 23.5024 86.059 22.7051 86.059 21.8384C86.059 20.9717 86.2679 20.1744 86.6859 19.4811C87.1038 18.7877 87.6959 18.2331 88.4272 17.8517C89.1586 17.4704 89.9945 17.2624 90.9348 17.2624C91.701 17.2624 92.3628 17.4011 92.9897 17.6437C93.6165 17.8864 94.139 18.2677 94.5569 18.7184L93.5121 19.7237C92.8155 19.0304 92.0145 18.7184 91.0393 18.7184C90.4124 18.7184 89.8552 18.8571 89.3676 19.0997C88.88 19.3771 88.4969 19.7237 88.2183 20.2091C87.9397 20.6944 87.8003 21.2144 87.8003 21.8384C87.8003 22.4277 87.9397 22.9824 88.2183 23.4331C88.4969 23.9184 88.88 24.2997 89.3676 24.5424C89.8552 24.8197 90.4124 24.9584 91.0393 24.9584C91.7359 24.9584 92.3628 24.8197 92.8852 24.5077V21.7344H92.8155Z" fill="#99CC00"/>
    <path d="M59.2417 34.0064H60.809V37.5771C60.3562 37.9584 59.799 38.2357 59.2069 38.4091C58.58 38.6171 57.9531 38.6864 57.3262 38.6864C56.4207 38.6864 55.5848 38.4784 54.8534 38.0971C54.1221 37.7157 53.53 37.1611 53.1121 36.4677C52.6941 35.7744 52.4852 34.9771 52.4852 34.1104C52.4852 33.2437 52.6941 32.4464 53.1121 31.7531C53.53 31.0597 54.1221 30.5051 54.8534 30.1237C55.5848 29.7424 56.4207 29.5344 57.361 29.5344C58.1272 29.5344 58.789 29.6731 59.4159 29.9157C60.0428 30.1584 60.5652 30.5397 60.9831 30.9904L59.9383 31.9957C59.2417 31.3024 58.4407 30.9904 57.4655 30.9904C56.8386 30.9904 56.2814 31.1291 55.7938 31.3717C55.3062 31.6491 54.9231 31.9957 54.6445 32.4811C54.3659 32.9664 54.2265 33.4864 54.2265 34.1104C54.2265 34.6997 54.3659 35.2544 54.6445 35.7051C54.9231 36.1904 55.3062 36.5717 55.7938 36.8144C56.2814 37.0917 56.8386 37.2304 57.4655 37.2304C58.1621 37.2304 58.789 37.0917 59.3114 36.7797V34.0064H59.2417Z" fill="white"/>
    <path d="M68.8541 36.5024H64.3614L63.4907 38.5824H61.7841L65.8241 29.6384H67.461L71.501 38.5824H69.7597L68.8541 36.5024ZM68.2969 35.1851L66.5903 31.2677L64.9186 35.1851H68.2969Z" fill="white"/>
    <path d="M80.8696 38.5477V32.6197L77.9093 37.5077H77.1779L74.2176 32.7237V38.5824H72.6155V29.6384H73.9738L77.5262 35.5664L81.009 29.6384H82.3672V38.5824H80.8696V38.5477Z" fill="white"/>
    <path d="M91.1786 37.1611V38.5477H84.4569V29.6384H91.0045V31.0251H86.1286V33.3477H90.4472V34.6997H86.1286V37.1611H91.1786Z" fill="white"/>
    <path d="M93.8255 38.4091C93.1638 38.2011 92.6762 37.9584 92.2931 37.6464L92.8852 36.3637C93.2683 36.6411 93.721 36.8837 94.2434 37.0571C94.7659 37.2304 95.3231 37.3344 95.8455 37.3344C96.5072 37.3344 96.9948 37.2304 97.3431 37.0224C97.6565 36.8144 97.8307 36.5371 97.8307 36.1904C97.8307 35.9477 97.7262 35.7397 97.5521 35.5664C97.3779 35.3931 97.1341 35.2544 96.8555 35.1851C96.5769 35.0811 96.1938 34.9771 95.7062 34.8731C95.0096 34.6997 94.4524 34.5611 94.0345 34.3877C93.6165 34.2144 93.2334 33.9717 92.9548 33.6251C92.6414 33.2784 92.5021 32.8277 92.5021 32.2384C92.5021 31.7531 92.6414 31.3024 92.92 30.8864C93.1986 30.4704 93.5817 30.1584 94.139 29.9157C94.6962 29.6731 95.3579 29.5691 96.1241 29.5691C96.6814 29.5691 97.2038 29.6384 97.7262 29.7771C98.2486 29.9157 98.7014 30.1237 99.0845 30.3664L98.5621 31.6491C98.179 31.4064 97.761 31.2331 97.3431 31.1291C96.9252 31.0251 96.5072 30.9557 96.0893 30.9557C95.4276 30.9557 94.94 31.0597 94.6266 31.3024C94.3131 31.5104 94.139 31.8224 94.139 32.1691C94.139 32.4117 94.2434 32.6197 94.4176 32.7931C94.5917 32.9664 94.8355 33.0704 95.1141 33.1744C95.3928 33.2784 95.7759 33.3824 96.2634 33.4864C96.9252 33.6251 97.4824 33.7984 97.9003 33.9717C98.3183 34.1451 98.7014 34.3877 98.98 34.7344C99.2934 35.0811 99.4328 35.5317 99.4328 36.1211C99.4328 36.6064 99.2934 37.0571 99.0148 37.4731C98.7362 37.8891 98.3531 38.2011 97.7959 38.4437C97.2386 38.6864 96.5769 38.7904 95.8107 38.7904C95.1141 38.6864 94.4524 38.5824 93.8255 38.4091Z" fill="white"/>
  </g>
  <defs>
    <clipPath id="clip0_102_1536">
      <rect width="101" height="52" fill="white"/>
    </clipPath>
  </defs>
</svg>