<svg xmlns="http://www.w3.org/2000/svg" width="79" height="107" viewBox="0 0 79 107" fill="none">
<mask id="path-1-outside-1_110_33" maskUnits="userSpaceOnUse" x="0" y="0.658691" width="79" height="107" fill="black">
<rect fill="white" y="0.658691" width="79" height="107"/>
<path fill-rule="evenodd" clip-rule="evenodd" d="M72.857 40.0872C72.857 46.384 71.1159 52.2742 68.089 57.3027L44.4632 98.2237C42.2256 102.099 36.6314 102.099 34.3937 98.2237L10.7679 57.3026C7.74101 52.2742 6 46.384 6 40.0872C6 21.6251 20.9664 6.65869 39.4285 6.65869C57.8905 6.65869 72.857 21.6251 72.857 40.0872ZM39.4285 57.5282C49.0608 57.5282 56.8694 49.7196 56.8694 40.0872C56.8694 30.4549 49.0608 22.6463 39.4285 22.6463C29.7961 22.6463 21.9875 30.4549 21.9875 40.0872C21.9875 49.7196 29.7961 57.5282 39.4285 57.5282Z"/>
</mask>
<path fill-rule="evenodd" clip-rule="evenodd" d="M72.857 40.0872C72.857 46.384 71.1159 52.2742 68.089 57.3027L44.4632 98.2237C42.2256 102.099 36.6314 102.099 34.3937 98.2237L10.7679 57.3026C7.74101 52.2742 6 46.384 6 40.0872C6 21.6251 20.9664 6.65869 39.4285 6.65869C57.8905 6.65869 72.857 21.6251 72.857 40.0872ZM39.4285 57.5282C49.0608 57.5282 56.8694 49.7196 56.8694 40.0872C56.8694 30.4549 49.0608 22.6463 39.4285 22.6463C29.7961 22.6463 21.9875 30.4549 21.9875 40.0872C21.9875 49.7196 29.7961 57.5282 39.4285 57.5282Z" fill="#99CC00"/>
<path d="M68.089 57.3027L63.1082 54.3044L63.0808 54.3499L63.0542 54.3959L68.089 57.3027ZM44.4632 98.2237L49.498 101.131V101.131L44.4632 98.2237ZM34.3937 98.2237L29.3589 101.131V101.131L34.3937 98.2237ZM10.7679 57.3026L15.8027 54.3958L15.7762 54.3498L15.7488 54.3044L10.7679 57.3026ZM73.0698 60.301C76.6264 54.3927 78.6706 47.4698 78.6706 40.0872H67.0433C67.0433 45.2983 65.6055 50.1558 63.1082 54.3044L73.0698 60.301ZM49.498 101.131L73.1238 60.2095L63.0542 54.3959L39.4285 95.3169L49.498 101.131ZM29.3589 101.131C33.8343 108.882 45.0227 108.882 49.498 101.131L39.4285 95.3169C39.42 95.3316 39.4143 95.3392 39.4126 95.3414C39.4109 95.3436 39.4115 95.3425 39.4148 95.3393C39.418 95.3361 39.4224 95.3323 39.4276 95.3284C39.4328 95.3245 39.4378 95.3214 39.4422 95.319C39.451 95.3141 39.4547 95.3136 39.4513 95.3144C39.4497 95.3149 39.4467 95.3155 39.4425 95.316C39.4384 95.3165 39.4336 95.3169 39.4285 95.3169C39.4234 95.3169 39.4186 95.3165 39.4144 95.316C39.4103 95.3155 39.4073 95.3149 39.4056 95.3144C39.4023 95.3136 39.4059 95.3141 39.4147 95.3189C39.4191 95.3214 39.4241 95.3245 39.4293 95.3284C39.4346 95.3323 39.4389 95.3361 39.4422 95.3393C39.4454 95.3425 39.4461 95.3436 39.4443 95.3413C39.4426 95.3391 39.437 95.3316 39.4285 95.3168L29.3589 101.131ZM5.73316 60.2095L29.3589 101.131L39.4285 95.3169L15.8027 54.3958L5.73316 60.2095ZM0.186351 40.0872C0.186351 47.4698 2.23056 54.3927 5.78708 60.3009L15.7488 54.3044C13.2515 50.1557 11.8136 45.2982 11.8136 40.0872H0.186351ZM39.4285 0.845042C17.7557 0.845042 0.186351 18.4143 0.186351 40.0872H11.8136C11.8136 24.8359 24.1772 12.4723 39.4285 12.4723V0.845042ZM78.6706 40.0872C78.6706 18.4143 61.1013 0.845042 39.4285 0.845042V12.4723C54.6797 12.4723 67.0433 24.8359 67.0433 40.0872H78.6706ZM51.0558 40.0872C51.0558 46.5088 45.8501 51.7145 39.4285 51.7145V63.3418C52.2716 63.3418 62.6831 52.9304 62.6831 40.0872H51.0558ZM39.4285 28.4599C45.8501 28.4599 51.0558 33.6656 51.0558 40.0872H62.6831C62.6831 27.2441 52.2716 16.8326 39.4285 16.8326V28.4599ZM27.8012 40.0872C27.8012 33.6656 33.0069 28.4599 39.4285 28.4599V16.8326C26.5853 16.8326 16.1739 27.2441 16.1739 40.0872H27.8012ZM39.4285 51.7145C33.0069 51.7145 27.8012 46.5088 27.8012 40.0872H16.1739C16.1739 52.9304 26.5853 63.3418 39.4285 63.3418V51.7145Z" fill="#415600" mask="url(#path-1-outside-1_110_33)"/>
</svg>