<svg width="275" height="77" viewBox="0 0 275 77" fill="none" xmlns="http://www.w3.org/2000/svg">
<path d="M10.7733 66.6265C10.7733 66.6265 10.6271 66.5819 10.3346 66.4926C10.0446 66.4316 9.72622 66.373 9.37958 66.3168C9.06123 66.2582 8.81719 66.2361 8.64746 66.2504C8.18527 66.1755 7.83845 65.9483 7.60699 65.569C7.37792 65.218 7.30086 64.8114 7.3758 64.3492C7.47941 64.2265 7.54397 63.9788 7.56951 63.6063C7.59504 63.2338 7.59825 62.9343 7.57914 62.708C7.6732 62.4722 7.73078 62.3106 7.75191 62.2233C7.77064 62.1078 7.81749 61.8189 7.89243 61.3568C7.9367 60.8687 8.02202 60.1919 8.1484 59.3265C8.30068 58.4305 8.46233 57.4766 8.63334 56.465C8.83265 55.451 9.02139 54.4806 9.19957 53.5539C9.37775 52.6271 9.53958 51.8442 9.68506 51.2051C9.85884 50.5636 9.98458 50.1969 10.0623 50.1048C10.0623 50.1048 10.0587 50.0624 10.0515 49.9775C10.042 49.8644 10.0324 49.7512 10.0229 49.6381C10.0229 49.6381 10.0263 49.5096 10.0331 49.2526C10.0658 48.9649 10.1809 48.6418 10.3786 48.2832C10.4655 47.9625 10.5358 47.6147 10.5897 47.2397C10.6435 46.8648 10.6656 46.6208 10.6561 46.5076C10.7573 46.3566 10.8842 46.004 11.0369 45.4498C11.2154 44.8649 11.381 44.2953 11.5336 43.7411C11.6652 43.2742 11.8085 42.7777 11.9635 42.2518C12.1468 41.7235 12.2937 41.2695 12.4041 40.8898C12.5428 40.5077 12.6121 40.3166 12.6121 40.3166C12.6026 40.2035 12.5978 40.1469 12.5978 40.1469C12.5954 40.1186 12.5942 40.1045 12.5942 40.1045C12.6978 39.9818 12.9188 39.3933 13.2572 38.339C13.6214 37.2541 14.1162 35.859 14.7415 34.1538C14.8355 33.9179 14.9754 33.55 15.1611 33.0499C15.3445 32.5216 15.4313 32.2009 15.4218 32.0877C15.8103 31.6276 16.2086 31.4515 16.6166 31.5595C17.0504 31.6368 17.4385 31.8463 17.7807 32.1877C18.1513 32.5269 18.4204 32.846 18.5881 33.1453L19.0697 33.7884L17.7576 36.9762C17.3719 37.8065 17.0367 38.5613 16.7522 39.2406C16.4959 39.9175 16.3726 40.3126 16.3821 40.4257C16.3821 40.4257 16.3257 40.6014 16.2129 40.9529C16.1284 41.3019 16.024 41.7523 15.8997 42.3041C15.7729 42.8277 15.6462 43.3512 15.5194 43.8747C15.2823 44.778 15.0473 45.5386 14.8146 46.1565C14.5795 46.7462 14.4667 47.0976 14.4762 47.2108C14.4714 47.1542 14.7508 47.0879 15.3142 47.0118C15.9058 46.9334 16.6402 46.8571 17.5171 46.7831C18.3941 46.7091 19.2852 46.6338 20.1905 46.5574C21.1216 46.4503 21.955 46.3657 22.6905 46.3036C23.4236 46.2132 23.9293 46.1278 24.2074 46.0474L26.396 45.6489L27.2653 41.772C27.4248 40.9608 27.6406 39.9739 27.9129 38.8112C28.1851 37.6486 28.4292 36.6593 28.6452 35.8433C28.988 34.5038 29.3925 33.558 29.8587 33.0058C30.3225 32.4253 30.7242 32.1207 31.0637 32.0921C31.1485 32.0849 31.3113 32.1566 31.5519 32.3072C31.8185 32.4272 32.0874 32.5754 32.3587 32.752C32.6301 32.9285 32.8012 33.0992 32.8721 33.2642C33.2378 33.5467 33.4233 33.8872 33.4284 34.2857C33.4618 34.6817 33.2797 35.2242 32.882 35.913C32.4939 36.715 32.1824 37.5818 31.9477 38.5134C31.7388 39.4142 31.5451 40.1571 31.3665 40.742C31.3952 41.0814 31.3767 41.3679 31.3109 41.6014C31.2427 41.8066 31.1569 41.9705 31.0533 42.0932C31.0015 42.1546 30.9062 42.3763 30.7675 42.7584C30.6288 43.1405 30.5043 43.5214 30.3939 43.9011C30.2835 44.2808 30.2319 44.5131 30.239 44.598C30.2558 44.796 30.2336 45.04 30.1726 45.3301C30.1117 45.6201 30.0294 45.8265 29.9258 45.9492C29.8835 46.1237 29.792 46.5588 29.6513 47.2545C29.5106 47.9501 29.3524 48.7755 29.1766 49.7305C28.9984 50.6573 28.8049 51.5711 28.596 52.4719C28.3848 53.3445 28.1899 54.0732 28.0113 54.6581C28.028 54.8561 27.9788 55.1167 27.8636 55.4398C27.7461 55.7347 27.6968 55.9953 27.7159 56.2216C27.6315 56.5706 27.5258 57.0069 27.3991 57.5304C27.2723 58.0539 27.2149 58.3864 27.2269 58.5279C27.1404 59.1905 27.0481 59.9533 26.95 60.8163C26.8802 61.6769 26.8161 62.4373 26.7579 63.0975C26.728 63.7553 26.7166 64.1267 26.7238 64.2116C25.9954 64.3585 25.4354 64.3061 25.0438 64.0542C24.6521 63.8024 24.2959 63.633 23.9752 63.5461C23.4114 63.2803 23.0527 62.9117 22.8989 62.4404C22.7758 61.9949 22.8424 61.4337 23.0987 60.7568C23.221 60.5185 23.3442 59.9526 23.4682 59.0589C23.6181 58.1345 23.7691 57.2243 23.9214 56.3282C24.0553 55.8896 24.1938 55.3365 24.3369 54.6692C24.48 54.0018 24.6102 53.3498 24.7274 52.7131C24.8705 52.0457 24.9936 51.4797 25.0969 51.0152C25.2001 50.5506 25.2776 50.2876 25.3294 50.2263C25.3199 50.1131 25.3115 50.0141 25.3043 49.9292C25.2972 49.8444 25.2936 49.8019 25.2936 49.8019C25.2322 49.7501 24.9458 49.7316 24.4342 49.7463C23.9202 49.7327 23.2683 49.7735 22.4786 49.8686C21.7148 49.9331 20.8827 50.0319 19.9822 50.1649C19.0793 50.2696 18.2225 50.4131 17.4116 50.5955C17.1004 50.6218 16.6478 50.66 16.0537 50.7102C15.488 50.7579 15.0919 50.7914 14.8656 50.8105C14.5544 50.8368 14.2857 50.8594 14.0593 50.8786C13.8613 50.8953 13.7623 50.9036 13.7623 50.9036C13.7129 50.9933 13.6236 51.2857 13.4945 51.781C13.3936 52.2738 13.2587 52.8693 13.0897 53.5673C12.949 54.263 12.7954 54.974 12.6287 55.7003C12.4904 56.4243 12.3615 57.0905 12.2419 57.6989C12.1482 58.2766 12.0838 58.6951 12.0487 58.9545C11.9786 59.4733 11.8767 60.1229 11.7432 60.9035C11.6379 61.6816 11.5056 62.4763 11.3461 63.2875C11.2174 64.1246 11.0932 64.8473 10.9736 65.4557C10.8823 66.0618 10.8155 66.452 10.7733 66.6265ZM33.4664 59.9243C33.3341 59.7075 33.0604 59.5027 32.6453 59.3098C32.2584 59.1145 32.0602 58.9603 32.0506 58.8472C32.0411 58.734 31.956 58.5702 31.7955 58.3559C31.6608 58.1108 31.5322 57.9365 31.4094 57.8329C31.2537 57.6751 31.2615 57.2613 31.4329 56.5916C31.6019 55.8935 31.8721 55.0445 32.2435 54.0444C32.6149 53.0444 33.0276 52.0266 33.4815 50.9911C33.6887 50.7457 33.89 50.4295 34.0852 50.0427C34.2805 49.6558 34.4299 49.401 34.5335 49.2783C34.524 49.1651 34.558 49.0625 34.6358 48.9705C34.7111 48.8502 34.8053 48.7853 34.9185 48.7757L35.2006 48.0681C35.2476 47.9502 35.3983 47.7095 35.6525 47.3462C35.935 46.9804 36.2717 46.5816 36.6626 46.1497C37.0512 45.6896 37.4421 45.2577 37.8354 44.8541C38.2569 44.4481 38.602 44.1484 38.8706 43.9547C39.4312 43.5085 40.0239 43.2733 40.6487 43.2491C41.3017 43.2224 41.8701 43.3739 42.3537 43.7034C42.4458 43.7811 42.644 43.9353 42.9484 44.1661C43.281 44.3944 43.6444 44.6486 44.0384 44.9288C44.4608 45.2065 44.8241 45.4607 45.1285 45.6915L46.8168 46.9592L46.2745 49.1418C46.0023 50.3044 45.9869 51.3029 46.2282 52.1373C46.4696 52.9716 46.8005 53.6845 47.2208 54.2758C47.3885 54.575 47.5927 54.8 47.8333 54.9506C48.1022 55.0988 48.4371 55.1845 48.8379 55.2077C49.0666 55.2168 49.286 55.2838 49.4959 55.4085C49.7059 55.5333 49.824 55.7512 49.8503 56.0624C49.9076 56.7413 49.8221 57.2471 49.5938 57.5798C49.3913 57.8818 49.1511 58.0731 48.873 58.1535C47.949 58.3455 47.0495 58.3217 46.1745 58.0822C45.2996 57.8426 44.4677 57.1009 43.6789 55.8569C43.5514 55.6967 43.3696 55.3986 43.1333 54.9627C42.923 54.4961 42.7977 54.1933 42.7575 54.0543C42.6563 54.2053 42.5162 54.4023 42.3373 54.6453C42.1843 54.8577 42.03 55.0559 41.8746 55.2399C40.0381 57.4463 38.4247 58.9216 37.0344 59.6658C35.6701 60.3793 34.4808 60.4654 33.4664 59.9243ZM35.5029 56.2052C35.7034 56.2168 36.0062 56.0915 36.4114 55.8294C36.8143 55.5389 37.3454 55.081 38.0049 54.4555C38.8975 53.5539 39.6322 52.8081 40.2092 52.2181C40.7862 51.628 41.3359 50.8836 41.8583 49.9847L42.6629 48.3783C42.3251 47.7515 42.0347 47.3487 41.7916 47.1698C41.5486 46.9909 41.3139 46.911 41.0876 46.9301C40.7199 46.9611 40.3017 47.2386 39.8331 47.7625C39.3621 48.2581 38.8395 48.986 38.2652 49.9462C37.7169 50.8757 37.1028 52.0387 36.423 53.4352C36.1077 54.0886 35.8762 54.7207 35.7283 55.3315C35.5781 55.914 35.5029 56.2052 35.5029 56.2052ZM53.4441 58.4941C53.272 58.4802 52.9477 58.3508 52.4712 58.1062C52.0229 57.8591 51.5781 57.4835 51.1367 56.9795C50.7212 56.4447 50.4505 55.7696 50.3246 54.9539C50.2558 54.4754 50.2434 53.9921 50.2877 53.504C50.332 53.0159 50.4304 52.4948 50.5831 51.9406C50.8111 51.266 51.0273 50.621 51.2317 50.0054C51.4645 49.3875 51.6972 48.7695 51.9299 48.1515C52.3341 46.8638 52.7374 45.9038 53.1398 45.2715C53.5706 44.6369 53.9982 44.3016 54.4225 44.2658C55.0496 44.2698 55.6252 44.5062 56.1491 44.9748C56.673 45.4434 56.9411 45.9193 56.9534 46.4026C56.9159 46.6337 56.8254 46.912 56.682 47.2375C56.5668 47.5607 56.4092 47.8874 56.2092 48.2177C55.8441 48.6188 55.5664 49.0412 55.3759 49.4846C55.2113 49.8974 55.0668 50.3797 54.9425 50.9315C54.6344 51.6698 54.4204 52.1722 54.3005 52.4387C54.2088 52.7029 54.109 53.039 54.001 53.447C54.1755 53.4892 54.3335 53.5044 54.4749 53.4924C54.6422 53.4498 54.8072 53.3789 54.9698 53.2797C55.13 53.1522 55.2724 52.9835 55.3971 52.7735C55.8586 52.1647 56.2188 51.707 56.4778 51.4002C56.7368 51.0934 56.9676 50.789 57.17 50.487C57.2477 50.395 57.4372 50.1083 57.7384 49.6271C58.0373 49.1175 58.3362 48.6079 58.635 48.0983C58.9598 47.5581 59.1858 47.1971 59.3129 47.0154C59.5129 46.6851 59.6729 46.3867 59.7929 46.1202C59.9411 45.8512 60.0611 45.5847 60.1527 45.3205C60.1783 44.948 60.3253 44.6649 60.5939 44.4713C60.8624 44.2777 61.183 44.1936 61.5555 44.2192C62.1169 44.4567 62.5356 44.692 62.8117 44.9251C63.1161 45.1558 63.3888 45.5174 63.6298 46.0099C63.7952 46.2809 63.8298 46.6911 63.7337 47.2405C63.6353 47.7617 63.3732 48.5388 62.9476 49.5719C62.7595 50.0436 62.5891 50.5566 62.4365 51.1108C62.2815 51.6368 62.2242 52.1402 62.2648 52.6211C62.2935 52.9606 62.374 53.2387 62.5062 53.4555C62.5839 53.3634 62.7664 53.1628 63.0537 52.8537C63.3386 52.5162 63.6636 52.1469 64.0286 51.7457C64.3912 51.3162 64.702 50.9481 64.961 50.6413C64.9845 50.5823 65.1234 50.3712 65.3777 50.0078C65.6578 49.6138 65.8485 49.3413 65.9497 49.1903L67.5068 46.8793C67.6857 46.6362 67.8563 46.2942 68.0185 45.8531C68.2089 45.4097 68.4325 45.0204 68.6891 44.6854C68.9457 44.3503 69.2781 44.2368 69.686 44.3448C70.6459 44.5771 71.355 45.2153 71.8135 46.2593C71.8991 46.9358 71.8162 47.6408 71.5647 48.3743C71.3392 49.0772 71.1962 49.9155 71.136 50.8892C71.1152 51.3184 71.1146 51.817 71.1341 52.3852C71.1512 52.9251 71.1621 53.2233 71.1669 53.2799C71.3864 53.5178 71.6316 53.554 71.9026 53.3887C72.1735 53.2234 72.4351 53.1158 72.6873 53.066C73.2981 53.2139 73.6746 53.6237 73.8168 54.2955C73.9566 54.939 73.8075 55.5357 73.3696 56.0855C73.0469 56.3121 72.7335 56.4811 72.4294 56.5922C72.1513 56.6727 71.8838 56.7095 71.6268 56.7027C71.167 56.656 70.7731 56.5468 70.4452 56.3751C70.1432 56.1726 69.899 55.9796 69.7126 55.7959C69.5237 55.5839 69.3845 55.4532 69.2948 55.4038C68.9291 55.1213 68.6152 54.7774 68.353 54.3722C68.0909 53.9669 67.8875 53.4143 67.743 52.7142C67.5899 52.9266 67.3451 53.2321 67.0084 53.6309C66.6716 54.0298 66.3361 54.4427 66.0018 54.8698C65.6651 55.2686 65.3672 55.6214 65.1082 55.9282C64.8468 56.2067 64.7161 56.3459 64.7161 56.3459C64.3252 56.7778 63.9236 57.0824 63.5112 57.2596C63.0988 57.4369 62.619 57.4916 62.072 57.4239C61.6285 57.2334 61.1767 56.9439 60.7166 56.5553C60.254 56.1385 59.9542 55.7935 59.8172 55.5201C59.6778 55.2185 59.5573 54.9723 59.4557 54.7814C59.3517 54.5622 59.2643 54.3702 59.1933 54.2052C59.1531 54.0662 59.1141 53.9413 59.0762 53.8305C59.0384 53.7197 59.0017 53.6231 58.9663 53.5406C58.8651 53.6916 58.7109 53.8898 58.5037 54.1352C58.3223 54.35 58.1281 54.5801 57.9209 54.8255C57.7113 55.0426 57.5005 55.2456 57.2885 55.4344C56.5067 56.2982 55.9345 56.9448 55.5719 57.3743C55.2069 57.7755 54.9313 58.0552 54.7452 58.2133C54.5851 58.3408 54.3635 58.4165 54.0806 58.4404L53.4441 58.4941ZM88.8554 56.2739C87.9522 56.0367 87.1842 55.546 86.5516 54.8017C85.9448 54.0267 85.4913 53.2102 85.1909 52.3524C85.0873 52.4751 84.9837 52.5978 84.8801 52.7205C84.8024 52.8125 84.6988 52.9352 84.5693 53.0886C84.1832 53.5771 83.7275 54.0856 83.2023 54.6143C82.6771 55.143 82.1318 55.6022 81.5664 55.9918C80.9986 56.3531 80.4153 56.5306 79.8164 56.5241C79.3375 56.2512 78.874 55.9912 78.4257 55.7441C78.0034 55.4663 77.6564 55.0683 77.3847 54.5499C77.3823 54.5216 77.367 54.5086 77.3387 54.511C77.3387 54.511 77.3375 54.4969 77.3351 54.4686C77.0539 53.837 76.8352 53.2714 76.679 52.7718C76.5488 52.2415 76.5174 51.5318 76.5848 50.6429C76.6805 49.7516 76.9007 48.4794 77.2455 46.8263C77.3862 46.1307 77.5411 45.4338 77.7101 44.7358C77.8767 44.0094 78.0493 43.3538 78.2278 42.7689C78.404 42.1558 78.5744 41.6428 78.7389 41.23C78.9035 40.8172 79.0659 40.5471 79.2261 40.4196C79.3676 40.4077 79.4949 40.3969 79.608 40.3874C79.7188 40.3495 79.8307 40.3259 79.9439 40.3163C80.1985 40.2948 80.5216 40.41 80.9133 40.6618C81.1515 40.7842 81.3768 40.9218 81.5892 41.0749C81.8298 41.2255 81.9844 41.3691 82.0529 41.5058C82.2489 41.8027 82.2449 42.4298 82.0408 43.3872C81.8367 44.3447 81.5832 45.3917 81.2803 46.5285C81.0033 47.6345 80.7534 48.724 80.5306 49.797C80.3337 50.8393 80.3157 51.6385 80.4766 52.1948C80.7806 52.0836 81.0552 51.9607 81.3002 51.8261C81.5712 51.6608 81.8114 51.4695 82.021 51.2524C82.4733 50.8723 82.8783 50.4393 83.2362 49.9532C83.594 49.4671 83.8941 48.9717 84.1364 48.4669C84.4046 47.9314 84.6056 47.4443 84.7395 47.0057C84.9392 46.3335 85.1178 45.7486 85.2752 45.251C85.4302 44.7251 85.55 44.2876 85.6345 43.9386C85.7166 43.5613 85.761 43.2441 85.7678 42.9871C85.8029 42.7277 85.8121 42.499 85.7954 42.301C85.7241 41.7942 85.7496 41.4217 85.872 41.1834C86.0202 40.9145 86.3099 40.6336 86.7411 40.3408C86.9674 40.3217 87.1949 40.3167 87.4236 40.3259C87.6499 40.3068 87.8633 40.303 88.0637 40.3146C88.3067 40.4935 88.5521 40.7007 88.7999 40.9362C89.0736 41.141 89.3332 41.3471 89.5786 41.5543C89.8599 42.1858 89.8973 42.9662 89.6908 43.8953C89.5102 44.7938 89.3049 45.737 89.075 46.7251C88.8474 47.7415 88.6764 48.7532 88.5619 49.76C88.4734 50.7362 88.6865 51.5729 89.2012 52.2702C89.6088 52.0364 89.9858 51.7766 90.332 51.491C90.6759 51.177 91.0198 50.8631 91.3637 50.5491C91.7075 50.2352 92.0538 49.9496 92.4025 49.6922C92.879 49.9369 93.2744 50.4021 93.5887 51.0878C93.903 51.7736 94.0817 52.371 94.1246 52.8802C94.0493 53.0006 93.9587 53.1079 93.8527 53.2024C93.775 53.2944 93.6831 53.3876 93.5771 53.482C93.3866 53.9255 93.0135 54.3986 92.4576 54.9014C91.8994 55.3759 91.2903 55.7549 90.6305 56.0386C89.9706 56.3222 89.3789 56.4006 88.8554 56.2739ZM118.963 52.7492C118.457 52.8205 118.003 52.6736 117.601 52.3086C117.2 51.9436 116.892 51.4995 116.677 50.9763C116.488 50.4225 116.432 49.9286 116.509 49.4947C116.624 48.8297 116.722 48.1377 116.804 47.4185C116.883 46.671 117.025 45.9895 117.23 45.3739C117.298 45.1688 117.374 44.8916 117.459 44.5426C117.543 44.1936 117.612 43.8316 117.666 43.4567C117.746 43.0511 117.771 42.6786 117.743 42.3391C117.724 42.1128 117.679 41.9171 117.608 41.7522C117.537 41.5872 117.427 41.4683 117.278 41.3953C117.04 41.273 116.632 41.165 116.054 41.0713C115.505 40.9752 114.945 40.9228 114.374 40.914C114.172 40.8741 113.957 40.8637 113.731 40.8829C113.533 40.8996 113.363 40.9139 113.222 40.9258C113.165 41.2725 113.109 41.6191 113.053 41.9658C113.025 42.31 112.953 42.6437 112.838 42.9668C112.749 43.2593 112.676 43.5788 112.62 43.9254C112.561 44.2438 112.503 44.5621 112.444 44.8805C112.376 45.4275 112.29 45.9192 112.184 46.3555C112.104 46.7611 112.012 47.182 111.906 47.6183C111.826 48.0239 111.741 48.5297 111.65 49.1357C111.589 49.4258 111.526 49.7017 111.463 49.9635C111.4 50.2252 111.325 50.5165 111.238 50.8372C111.214 50.8962 111.205 50.954 111.21 51.0105C111.214 51.0671 111.219 51.1237 111.224 51.1803C111.279 51.8309 111.118 52.2861 110.741 52.5459C110.392 52.8032 109.987 53.0654 109.525 53.3323C109.438 53.3112 109.338 53.3054 109.225 53.3149C109.14 53.3221 109.054 53.3151 108.966 53.294C108.664 53.0916 108.387 52.8443 108.135 52.5522C107.908 52.2295 107.669 51.9362 107.419 51.6724C107.473 51.2975 107.541 50.7504 107.623 50.0313C107.73 49.2814 107.854 48.5587 107.995 47.863C108.133 47.1391 108.277 46.6426 108.425 46.3737C108.448 46.3147 108.503 45.9539 108.59 45.2913C108.702 44.5981 108.805 43.9626 108.899 43.3848C108.937 43.1537 108.978 42.9651 109.022 42.8189C109.065 42.6444 109.096 42.5135 109.117 42.4262C109.298 41.8696 109.392 41.2919 109.398 40.693C109.402 40.0659 109.424 39.48 109.464 38.9353C109.706 38.7724 109.949 38.6094 110.192 38.4465C110.46 38.2529 110.735 38.13 111.015 38.0778C111.039 38.0189 111.048 37.9611 111.043 37.9045C111.039 37.8479 111.048 37.7902 111.071 37.7312C111.576 37.2898 112.179 37.0109 112.881 36.8946C113.612 36.7759 114.294 36.7611 114.929 36.85C115.016 36.8711 115.103 36.8922 115.191 36.9133C115.278 36.9345 115.365 36.9556 115.452 36.9767C115.759 36.8939 116.176 36.9441 116.704 37.1274C117.23 37.2825 117.746 37.4811 118.251 37.7234C118.755 37.9657 119.115 38.1775 119.33 38.3588C120.002 38.9004 120.482 39.5152 120.768 40.2033C121.08 40.8608 121.267 41.5573 121.329 42.2928C121.396 43.0849 121.365 43.8995 121.236 44.7366C121.105 45.5454 120.958 46.3413 120.796 47.1242C120.677 47.7326 120.602 48.1948 120.571 48.5107C120.541 48.8267 120.579 49.1084 120.686 49.3558C120.818 49.5726 121.026 49.84 121.309 50.1579C121.222 50.4787 121.057 50.8914 120.815 51.3962C120.599 51.8704 120.292 52.1241 119.896 52.1576C119.731 52.2285 119.584 52.3406 119.455 52.494C119.354 52.645 119.19 52.7301 118.963 52.7492ZM129.666 51.9311C129.334 52.0446 128.944 51.9779 128.495 51.7308C128.047 51.4837 127.636 51.1623 127.26 50.7667C126.885 50.371 126.64 50.007 126.527 49.6747C126.364 49.0902 126.331 48.3664 126.429 47.5034C126.553 46.6097 126.801 45.6628 127.172 44.6628C127.541 43.6344 128.026 42.6248 128.626 41.634C129.224 40.6148 129.915 39.6875 130.699 38.8521C131.483 38.0166 132.352 37.3449 133.307 36.837C133.712 36.5748 133.997 36.4083 134.162 36.3374C134.325 36.2382 134.494 36.2239 134.671 36.2944C134.846 36.3367 135.155 36.453 135.598 36.6435C136.004 36.7233 136.412 36.8313 136.822 36.9676C137.258 37.0732 137.65 37.325 137.997 37.7231C138.259 38.1283 138.465 38.5383 138.614 38.9531C138.763 39.3679 138.902 39.8405 139.033 40.3708C139.319 41.0589 139.443 41.5185 139.405 41.7496C139.365 41.9524 139.294 42.1152 139.19 42.2379C138.988 42.5399 138.943 42.6861 139.056 42.6766C139.056 42.6766 139.047 42.7343 139.028 42.8499C139.035 42.9348 138.991 43.081 138.894 43.2886C138.749 43.9276 138.643 44.5349 138.578 45.1102C138.538 45.6549 138.593 46.1346 138.742 46.5494C139.021 47.1526 139.349 47.4953 139.726 47.5774C140.132 47.6571 140.62 47.3595 141.19 46.6846C141.482 46.4321 141.823 46.2608 142.215 46.1707C142.603 46.0524 142.807 46.1064 142.827 46.3328C142.827 46.3328 142.873 46.3716 142.965 46.4493C143.054 46.4987 143.156 46.5187 143.269 46.5091C143.41 46.4972 143.479 46.6338 143.474 46.9191C143.468 47.1761 143.436 47.4779 143.38 47.8246C143.324 48.1712 143.234 48.4636 143.112 48.7019C142.724 49.1621 142.535 49.4629 142.547 49.6043C142.547 49.6043 142.495 49.6657 142.392 49.7884C142.314 49.8804 142.17 50.035 141.961 50.2521C141.478 50.6063 140.84 50.8168 140.048 50.8837C139.284 50.9482 138.677 50.8427 138.227 50.5674C137.776 50.292 137.319 49.9459 136.857 49.5291C136.423 49.1099 136.132 48.7071 135.986 48.3206L135.738 47.9142L134.575 48.8243C134.29 49.1617 134.084 49.4213 133.957 49.603C133.828 49.7564 133.711 49.8944 133.607 50.0171C133.532 50.1375 133.441 50.2448 133.335 50.3392C133.258 50.4313 133.162 50.4821 133.049 50.4916C132.936 50.5012 132.837 50.5095 132.752 50.5167C132.667 50.5239 132.625 50.5275 132.625 50.5275C132.634 50.6406 132.449 50.8129 132.07 51.0444C131.688 51.2475 131.263 51.4402 130.794 51.6222C130.325 51.8042 129.949 51.9072 129.666 51.9311ZM130.256 48.2914C130.426 48.2771 130.672 48.1566 130.995 47.9299C131.344 47.6725 131.717 47.3704 132.115 47.0233C132.513 46.6763 132.869 46.3329 133.182 45.9931C133.524 45.6508 133.771 45.3736 133.924 45.1612C134.028 45.0385 134.139 44.8439 134.259 44.5773C134.408 44.3084 134.572 44.0665 134.754 43.8518C135.342 43.0614 135.703 42.4468 135.837 42.0081C135.969 41.5412 135.858 41.0662 135.503 40.5833C135.364 40.2817 135.208 40.1239 135.036 40.1099C134.864 40.0959 134.519 40.2248 134 40.4965C133.677 40.7232 133.337 41.0796 132.979 41.5656C132.622 42.0517 132.254 42.5955 131.878 43.1971C131.529 43.7963 131.211 44.4073 130.921 45.0301C130.632 45.6528 130.395 46.2142 130.209 46.7142C130.051 47.2118 129.985 47.6021 130.008 47.885C130.018 47.9981 130.055 48.0948 130.118 48.1749C130.21 48.2526 130.256 48.2914 130.256 48.2914ZM145.516 61.7472C145.311 61.6791 144.982 61.4932 144.529 61.1895C144.104 60.8835 143.705 60.5468 143.332 60.1794C142.99 59.8379 142.812 59.5823 142.797 59.4126C142.783 59.2428 142.815 58.7842 142.895 58.0368C142.977 57.3176 143.086 56.4251 143.224 55.3593C143.393 54.3194 143.573 53.25 143.765 52.1511C143.988 51.0781 144.221 50.1183 144.463 49.2717C144.507 49.1254 144.652 48.6431 144.896 47.8248C145.166 46.9757 145.408 45.9581 145.621 44.772C145.785 44.0174 146.012 43.1578 146.301 42.1932C146.59 41.2286 146.893 40.2628 147.21 39.2958C147.525 38.3005 147.779 37.4244 147.971 36.6674C148.164 35.9104 148.385 35.151 148.634 34.3892C148.88 33.5991 149.013 33.1463 149.032 33.0307C149.074 32.8562 149.218 32.7016 149.463 32.567C149.734 32.4016 150.007 32.2646 150.283 32.1559C150.556 32.0188 150.734 31.9326 150.817 31.8971C151.314 31.7127 151.77 31.8878 152.186 32.4226C152.349 32.6652 152.407 33.0165 152.36 33.4763C152.339 33.9054 152.237 34.3841 152.054 34.9124L151.829 35.7862L153.328 35.3177C153.582 35.2962 153.937 35.2805 154.392 35.2706C154.847 35.2607 155.288 35.2519 155.715 35.2444C156.17 35.2345 156.484 35.2507 156.659 35.2929C157.34 35.2639 157.818 35.3518 158.092 35.5566C158.394 35.759 158.659 36.0358 158.888 36.3868C159.042 36.5163 159.228 36.7 159.447 36.9379C159.665 37.1475 159.797 37.3642 159.844 37.5882C159.998 38.0595 160.003 38.6289 159.86 39.2963C159.745 39.9613 159.533 40.6487 159.222 41.3587C158.938 42.0381 158.579 42.6809 158.146 43.2873C157.739 43.863 157.335 44.3102 156.934 44.6289C156.661 44.766 156.417 44.9148 156.203 45.0753C155.986 45.2076 155.878 45.2737 155.878 45.2737C155.861 45.4175 155.584 45.6831 155.047 46.0703C154.539 46.4552 153.929 46.8342 153.22 47.2075C152.537 47.5501 151.916 47.7877 151.357 47.9203C151.162 47.9654 150.881 48.0175 150.516 48.0769C150.15 48.1362 149.864 48.1176 149.656 48.0212C149.34 47.9909 149.126 47.9805 149.013 47.9901C148.9 47.9996 148.848 48.061 148.857 48.1741C148.834 48.2331 148.674 48.7025 148.378 49.5822C148.082 50.4619 147.799 51.6682 147.529 53.2009C147.13 54.8871 146.805 56.2678 146.554 57.3432C146.306 58.4468 146.107 59.3041 145.959 59.9149C145.84 60.5233 145.748 60.9584 145.685 61.2201C145.624 61.5102 145.568 61.6859 145.516 61.7472ZM149.56 44.354C149.66 44.5165 149.961 44.548 150.466 44.4485C150.968 44.3206 151.534 44.1019 152.163 43.7924C152.792 43.4829 153.347 43.1369 153.827 42.7544C154.334 42.3413 154.613 41.9331 154.664 41.5299C155.227 40.7701 155.622 40.2239 155.851 39.8912C156.076 39.5302 156.04 39.2627 155.74 39.0885C155.391 38.6622 154.92 38.4882 154.328 38.5667C153.765 38.6427 152.89 39.0728 151.702 39.8568C151.236 40.0671 150.923 40.2502 150.766 40.406C150.605 40.5334 150.48 40.7293 150.388 40.9934C150.324 41.2552 150.189 41.6797 149.983 42.267C149.78 42.9109 149.65 43.392 149.592 43.7103C149.533 44.0286 149.523 44.2432 149.56 44.354ZM164.975 48.3092C164.418 48.1283 163.951 47.8258 163.573 47.4019C163.222 46.9472 163.017 46.3804 162.96 45.7015C162.936 45.4186 162.952 44.9329 163.008 44.2444C163.064 43.5559 163.155 42.779 163.281 41.9136C163.407 41.0482 163.539 40.2393 163.675 39.4871C163.914 38.954 164.055 38.4293 164.097 37.9129C164.167 37.3942 164.198 37.0782 164.188 36.965C164.216 36.6208 164.277 36.1598 164.371 35.5821C164.464 35.0043 164.563 34.4832 164.666 34.0186C164.795 33.5234 164.886 33.2451 164.937 33.1837C165.067 33.0303 165.3 32.9252 165.637 32.8682C165.974 32.8113 166.317 32.825 166.666 32.9095C167.013 32.9658 167.255 33.1305 167.392 33.4039C167.732 33.7171 167.944 34.2119 168.03 34.8885C168.144 35.5627 168.084 36.3655 167.849 37.297C167.642 37.8843 167.443 38.5706 167.253 39.3559C167.063 40.1412 166.897 40.8676 166.754 41.5349C166.636 42.1716 166.573 42.6043 166.564 42.833L165.033 42.9196C165.475 42.4263 165.889 41.9213 166.272 41.4046C166.654 40.8596 166.932 40.4373 167.106 40.1376C167.532 39.4464 167.896 38.8743 168.2 38.4213C168.53 37.9376 168.951 37.3607 169.464 36.6906C169.975 35.9921 170.545 35.4882 171.174 35.1786C171.801 34.8408 172.27 34.6588 172.581 34.6325C173.213 34.6931 173.792 34.9719 174.319 35.4688C174.871 35.935 175.246 36.6725 175.446 37.6814C175.479 38.0774 175.476 38.5478 175.436 39.0924C175.425 39.6347 175.42 39.9059 175.42 39.9059C175.42 39.9059 175.622 39.6039 176.027 38.9999C176.46 38.3935 177.043 37.7032 177.775 36.9291C178.279 36.4877 178.784 36.2172 179.288 36.1176C179.79 35.9898 180.257 36.1213 180.689 36.5122C181.458 36.8462 182.054 37.4939 182.477 38.4553C182.9 39.4168 183.107 40.5247 183.099 41.779C183.077 42.5217 183.127 43.1157 183.25 43.5612C183.399 43.976 183.544 44.3483 183.686 44.6782C184.097 45.1564 184.192 45.6043 183.97 46.0218C183.747 46.4111 183.536 46.614 183.338 46.6308C183.055 46.6546 182.626 46.6339 182.051 46.5685C181.475 46.5031 180.935 46.3493 180.431 46.107C179.954 45.8623 179.695 45.4995 179.655 45.0186L179.433 42.3877C179.38 41.7653 179.314 41.3151 179.233 41.0369C179.179 40.7282 179.091 40.5361 178.971 40.4608C178.645 40.3173 178.274 40.4769 177.857 40.9394C177.441 41.402 176.997 42.052 176.526 42.8895C176.082 43.6963 175.603 44.6056 175.09 45.6176C174.626 46.54 174.233 47.1145 173.911 47.3412C173.585 47.5396 173.259 47.5529 172.931 47.3811C172.292 47.2357 171.873 47.0003 171.675 46.6752C171.502 46.3194 171.454 45.9104 171.528 45.4482C171.629 44.9553 171.747 44.3186 171.88 43.5381C172.042 42.7552 172.192 42.0018 172.33 41.2778C172.466 40.5256 172.548 39.9773 172.576 39.6331C172.444 39.4163 172.24 39.3623 171.964 39.4711C171.714 39.5491 171.456 39.6991 171.19 39.921C170.87 40.176 170.522 40.4475 170.148 40.7356C169.801 41.0212 169.408 41.5957 168.968 42.4591C168.674 43.0253 168.343 43.6516 167.973 44.338C167.601 44.9962 167.253 45.5955 166.928 46.1357C166.632 46.6736 166.379 47.0511 166.169 47.2682C166.014 47.7941 165.858 48.135 165.7 48.2908C165.54 48.4182 165.298 48.4244 164.975 48.3092ZM197.653 47.089C197.427 47.1081 197.259 47.1365 197.148 47.1744C197.037 47.2122 196.865 47.1983 196.631 47.1325C196.429 47.0926 196.006 46.9858 195.365 46.812C195.041 46.355 194.831 45.8884 194.734 45.4123C194.663 44.9055 194.648 44.3939 194.69 43.8775C194.758 43.3304 194.869 42.794 195.024 42.268C195.179 41.7421 195.322 41.2457 195.454 40.7787C195.428 40.8094 195.387 40.8271 195.33 40.8319C195.274 40.8367 195.218 40.8556 195.164 40.8887C194.914 40.9667 194.664 41.0448 194.415 41.1229C194.162 41.1727 193.897 41.2378 193.619 41.3182C193.174 41.4413 192.742 41.5632 192.325 41.6839C191.906 41.7763 191.474 41.8982 191.031 42.0496C190.942 42.0001 190.838 41.9519 190.72 41.9049C190.63 41.8555 190.542 41.8202 190.454 41.7991C190.396 42.1174 190.354 42.4629 190.328 42.8354C190.303 43.2079 190.263 43.5817 190.209 43.9566C190.184 44.3291 190.13 44.7041 190.048 45.0814C189.992 45.428 189.892 45.7641 189.748 46.0896C189.133 46.227 188.683 46.2935 188.398 46.2891C188.112 46.2847 187.664 46.2086 187.053 46.0607C186.801 45.7686 186.605 45.4718 186.465 45.1701C186.352 44.8378 186.281 44.5019 186.252 44.1625C186.195 43.4835 186.279 42.7926 186.505 42.0898C186.728 41.3587 186.926 40.6724 187.1 40.0309C187.187 39.7102 187.248 39.4201 187.283 39.1608C187.344 38.8707 187.362 38.5842 187.339 38.3013C187.39 38.24 187.474 38.0477 187.589 37.7246C187.702 37.3732 187.838 36.9628 187.998 36.4935C188.2 35.8496 188.413 35.1621 188.636 34.431C188.859 33.6999 189.046 33.0431 189.196 32.4606C189.344 31.8498 189.424 31.4442 189.435 31.2438C189.406 30.5625 189.717 30.1943 190.368 30.1394C190.79 30.0753 191.254 30.1785 191.761 30.4491C192.268 30.7197 192.668 31.0705 192.961 31.5017C193.254 31.9328 193.277 32.3725 193.03 32.8207C192.92 33.2004 192.809 33.5801 192.699 33.9598C192.588 34.3395 192.479 34.7334 192.371 35.1414C192.261 35.5211 192.15 35.9008 192.04 36.2805C191.93 36.6602 191.819 37.0399 191.709 37.4196C191.69 37.5351 191.67 37.6365 191.649 37.7238C191.628 37.811 191.594 37.9136 191.547 38.0315C191.714 37.9889 191.881 37.9463 192.049 37.9037C192.242 37.8304 192.406 37.7453 192.54 37.6485C192.823 37.6247 193.233 37.59 193.771 37.5446C194.336 37.4969 194.846 37.4539 195.298 37.4157C195.593 37.5332 195.833 37.6697 196.017 37.8251C196.221 37.2096 196.425 36.594 196.63 35.9784C196.832 35.3346 197.006 34.6931 197.151 34.054C197.323 33.3843 197.439 32.7334 197.499 32.1015C197.551 31.6983 197.692 31.3445 197.922 31.0401C198.153 30.7357 198.43 30.4702 198.753 30.2435C199.394 30.4173 199.965 30.597 200.465 30.7827C200.993 30.9661 201.359 31.4195 201.563 32.1431C201.471 32.4072 201.423 32.682 201.419 32.9672C201.414 33.2525 201.366 33.5272 201.275 33.7914C200.983 34.7277 200.68 35.6935 200.365 36.6888C200.048 37.6557 199.76 38.6345 199.502 39.625C199.27 40.5848 199.096 41.5681 198.982 42.575C198.951 42.8909 198.893 43.2093 198.806 43.53C198.719 43.8507 198.633 44.1856 198.549 44.5346C198.49 44.853 198.446 45.1701 198.416 45.4861C198.414 45.7997 198.354 46.1039 198.236 46.3987C198.116 46.6653 197.922 46.8953 197.653 47.089ZM212.946 44.815C212.138 45.3675 211.257 45.7268 210.302 45.8929C209.373 46.0283 208.486 45.975 207.639 45.7331C206.79 45.4629 206.083 45.024 205.519 44.4163C205.205 44.0724 204.888 43.5152 204.566 42.7446C204.242 41.9457 204.107 40.846 204.159 39.4455C204.219 38.1298 204.504 36.7809 205.014 35.3988C205.553 34.0143 206.246 32.7734 207.093 31.6762C207.941 30.5789 208.901 29.7999 209.973 29.339C210.357 29.1641 210.745 29.0317 211.136 28.9416C211.553 28.8209 212.104 28.7602 212.788 28.7595C213.445 28.7894 214.04 28.9102 214.57 29.1218C215.099 29.3051 215.488 29.5287 215.738 29.7925C216.229 30.2069 216.563 30.6203 216.74 31.0327C216.917 31.4451 217.009 31.8505 217.014 32.249C216.949 33.1662 216.621 34.1768 216.03 35.2808C215.468 36.3824 214.614 37.238 213.469 37.8475C213.005 38.0861 212.45 38.2612 211.804 38.3727C211.158 38.4842 210.26 38.4746 209.109 38.3438C208.418 38.2597 207.972 38.3686 207.769 38.6706C207.595 38.9702 207.557 39.529 207.654 40.347C207.754 40.8515 207.905 41.2945 208.109 41.6763C208.338 42.0273 208.713 42.252 209.234 42.3505C209.894 42.4087 210.362 42.3835 210.638 42.2747C210.911 42.1377 211.252 41.9522 211.659 41.7184C211.874 41.5578 212.073 41.3843 212.256 41.1979C212.468 41.009 212.666 40.8214 212.85 40.6349C213.062 40.4461 213.235 40.3033 213.369 40.2065C213.501 40.0814 213.637 39.9987 213.776 39.9585C213.915 39.9182 214.055 39.8922 214.196 39.8802C214.51 39.8822 214.821 40.0269 215.131 40.3142C215.44 40.6015 215.649 40.883 215.757 41.1587C215.777 41.385 215.663 41.7223 215.415 42.1705C215.166 42.5905 214.82 43.0471 214.377 43.5403C213.96 44.0028 213.483 44.4277 212.946 44.815ZM211.596 35.3988C211.787 35.2972 212.053 35.0753 212.394 34.733C212.764 34.3884 213.09 34.0332 213.373 33.6675C213.653 33.2735 213.785 32.9774 213.768 32.7794C213.742 32.4682 213.507 32.2174 213.063 32.0269C212.648 31.834 212.121 31.8358 211.483 32.0322C211.261 32.1078 211.005 32.2861 210.716 32.567C210.426 32.8479 210.14 33.1712 209.857 33.5369C209.572 33.8744 209.33 34.2082 209.13 34.5385C208.928 34.8405 208.791 35.08 208.721 35.2569C208.846 35.3888 209.081 35.4828 209.428 35.539C209.775 35.5952 210.146 35.6066 210.542 35.5732C210.966 35.5374 211.318 35.4792 211.596 35.3988ZM219.319 55.5166C219.114 55.4485 218.785 55.2626 218.332 54.9589C217.907 54.6529 217.509 54.3162 217.136 53.9488C216.793 53.6073 216.615 53.3517 216.601 53.1819C216.586 53.0122 216.619 52.5536 216.698 51.8061C216.78 51.087 216.89 50.1945 217.028 49.1287C217.197 48.0887 217.377 47.0194 217.569 45.9205C217.792 44.8475 218.024 43.8877 218.266 43.041C218.311 42.8948 218.455 42.4125 218.7 41.5941C218.97 40.7451 219.212 39.7275 219.425 38.5414C219.589 37.7867 219.816 36.9271 220.105 35.9625C220.393 34.9979 220.697 34.0321 221.014 33.0652C221.329 32.0699 221.582 31.1938 221.775 30.4367C221.967 29.6797 222.188 28.9203 222.437 28.1585C222.684 27.3684 222.817 26.9156 222.835 26.8001C222.878 26.6256 223.021 26.471 223.266 26.3363C223.537 26.171 223.811 26.034 224.086 25.9252C224.36 25.7882 224.538 25.7019 224.62 25.6665C225.117 25.482 225.574 25.6572 225.989 26.1919C226.152 26.4346 226.21 26.7858 226.164 27.2456C226.143 27.6747 226.041 28.1534 225.858 28.6818L225.632 29.5555L227.131 29.0871C227.386 29.0656 227.741 29.0499 228.196 29.04C228.651 29.03 229.092 29.0213 229.518 29.0138C229.973 29.0038 230.288 29.02 230.463 29.0623C231.144 29.0332 231.621 29.1211 231.895 29.3259C232.197 29.5284 232.463 29.8051 232.692 30.1562C232.845 30.2857 233.032 30.4694 233.251 30.7072C233.468 30.9168 233.6 31.1336 233.648 31.3575C233.802 31.8289 233.807 32.3983 233.664 33.0656C233.549 33.7306 233.336 34.4181 233.026 35.1281C232.741 35.8074 232.383 36.4503 231.949 37.0566C231.542 37.6324 231.138 38.0796 230.738 38.3983C230.465 38.5353 230.221 38.6841 230.006 38.8447C229.79 38.9769 229.681 39.0431 229.681 39.0431C229.665 39.1869 229.388 39.4524 228.851 39.8397C228.342 40.2245 227.733 40.6036 227.024 40.9769C226.34 41.3195 225.719 41.5571 225.161 41.6897C224.965 41.7347 224.685 41.7869 224.319 41.8462C223.954 41.9056 223.667 41.887 223.46 41.7906C223.144 41.7603 222.929 41.7499 222.816 41.7594C222.703 41.769 222.651 41.8303 222.661 41.9435C222.637 42.0025 222.477 42.4718 222.181 43.3515C221.885 44.2313 221.602 45.4375 221.333 46.9703C220.934 48.6564 220.609 50.0372 220.358 51.1126C220.109 52.2162 219.911 53.0734 219.763 53.6842C219.643 54.2926 219.552 54.7277 219.489 54.9895C219.428 55.2795 219.371 55.4552 219.319 55.5166ZM223.364 38.1233C223.463 38.2859 223.765 38.3174 224.269 38.2178C224.771 38.09 225.337 37.8713 225.966 37.5618C226.595 37.2522 227.15 36.9062 227.631 36.5238C228.137 36.1106 228.416 35.7025 228.468 35.2992C229.03 34.5395 229.426 33.9932 229.654 33.6606C229.88 33.2996 229.843 33.032 229.544 32.8579C229.194 32.4315 228.724 32.2576 228.132 32.336C227.569 32.4121 226.693 32.8421 225.506 33.6261C225.039 33.8365 224.727 34.0195 224.569 34.1753C224.409 34.3028 224.283 34.4986 224.191 34.7628C224.128 35.0245 223.993 35.4491 223.786 36.0364C223.584 36.6802 223.454 37.1613 223.395 37.4797C223.337 37.798 223.326 38.0126 223.364 38.1233ZM244.565 42.7867C243.625 43.1225 242.927 43.2954 242.472 43.3053C242.048 43.3411 241.594 43.1943 241.11 42.8647C240.957 42.7352 240.788 42.5927 240.604 42.4373C240.42 42.2819 240.294 41.9791 240.228 41.5289C240.183 41.3332 240.276 41.0832 240.506 40.7788C240.763 40.4438 241.163 40.2818 241.705 40.293C242 40.4106 242.385 40.4208 242.861 40.3236C243.337 40.2264 243.819 40.029 244.307 39.7315C244.823 39.4315 245.288 39.0361 245.703 38.5452C246.211 37.8185 246.61 37.1438 246.899 36.5211C247.186 35.87 247.328 35.3595 247.326 34.9893C247.283 34.822 247.227 34.6699 247.159 34.5333C247.09 34.3966 246.994 34.2623 246.868 34.1304C246.374 34.3432 245.98 34.5758 245.688 34.8284C245.422 35.0503 245.157 35.2864 244.893 35.5366C244.076 36.3178 243.473 36.9385 243.084 37.3987C242.722 37.8282 242.442 38.2222 242.244 38.5808C242.046 38.9394 241.799 39.3876 241.503 39.9255C241.308 40.3123 241.067 40.6745 240.783 41.0119C240.495 41.3211 240.301 41.5512 240.2 41.7022C240.08 42.3106 239.756 42.6941 239.228 42.8526C238.509 42.7708 237.98 42.5734 237.64 42.2602C237.326 41.9163 237.196 41.386 237.249 40.6692C237.272 40.2684 237.34 39.7213 237.453 39.028C237.591 38.3041 237.715 37.7523 237.826 37.3726C238.422 34.6441 239.045 32.4119 239.696 30.676C240.376 28.9376 240.809 27.6617 240.997 26.8481L241.64 26.3664C242.124 26.3541 242.56 26.4597 242.949 26.6833C243.336 26.8786 243.604 27.3545 243.753 28.1112C243.765 28.2526 243.68 28.5875 243.496 29.1158C243.341 29.6417 243.151 30.2561 242.925 30.9589C242.697 31.6335 242.481 32.2785 242.277 32.8941C242.098 33.479 241.964 33.9177 241.875 34.2101C241.809 34.4436 241.881 34.4518 242.091 34.2346C242.326 33.9868 242.667 33.6304 243.112 33.1655C243.453 32.8233 243.786 32.553 244.112 32.3546C244.434 32.1279 244.705 31.9625 244.924 31.8586C245.306 31.6554 245.68 31.5242 246.045 31.4648C246.439 31.4031 246.733 31.3497 246.929 31.3047C247.893 31.2518 248.602 31.3772 249.055 31.6808C249.536 31.9821 249.851 32.3401 250 32.7549C250.178 33.1673 250.278 33.5149 250.302 33.7978C250.482 34.2385 250.591 34.6852 250.629 35.1378C250.695 35.588 250.691 36.0443 250.616 36.5064C250.55 36.7399 250.396 37.1091 250.154 37.6139C249.909 38.0904 249.623 38.5846 249.296 39.0966C248.997 39.6061 248.661 40.005 248.286 40.293C248.053 40.5691 247.695 40.8842 247.212 41.2384C246.757 41.5902 246.286 41.9149 245.799 42.2125C245.308 42.4818 244.897 42.6732 244.565 42.7867ZM254.258 42.6949C253.405 42.71 252.754 42.594 252.306 42.3469C251.884 42.0691 251.527 41.5579 251.236 40.8132C251.184 40.1908 251.196 39.6627 251.273 39.2288C251.377 38.7642 251.454 38.3304 251.505 37.9271C251.648 36.9179 251.799 36.1786 251.959 35.7093C252.117 35.2116 252.296 34.6409 252.498 33.997C252.614 33.6739 252.725 33.3084 252.833 32.9004C252.941 32.4924 253.036 32.0997 253.118 31.7224C253.222 31.2578 253.3 30.8381 253.354 30.4632C253.434 30.0576 253.515 29.6661 253.597 29.2888C253.698 28.7959 253.784 28.3043 253.857 27.8138C253.929 27.3233 254 26.8046 254.067 26.2575C254.505 25.7077 254.997 25.4525 255.541 25.492C256.086 25.5315 256.699 25.8786 257.381 26.5333C257.653 27.0517 257.803 27.4806 257.832 27.8201C257.889 28.1572 257.85 28.5451 257.716 28.9837C257.672 29.13 257.595 29.4071 257.487 29.8151C257.377 30.1948 257.245 30.6617 257.093 31.2159C256.966 31.7395 256.815 32.3078 256.638 32.921C256.446 33.678 256.255 34.4492 256.065 35.2345C255.9 35.9891 255.757 36.6565 255.635 37.2366C255.511 37.7884 255.429 38.1657 255.389 38.3685C255.257 38.8355 255.165 39.2564 255.111 39.6314C255.057 40.0063 255.013 40.4944 254.978 41.0956C255.054 41.3172 255.033 41.5753 254.915 41.8702C254.826 42.1626 254.607 42.4375 254.258 42.6949ZM263.981 34.4807C263.201 34.689 262.551 34.4162 262.032 33.6623C261.51 32.8801 261.418 31.4491 261.755 29.3693C261.896 29.0155 262.01 28.6782 262.097 28.3575C262.181 28.0085 262.215 27.735 262.198 27.5369C262.281 27.1596 262.386 26.7233 262.515 26.2281C262.67 25.7022 262.829 25.2187 262.991 24.7776C263.151 24.3083 263.267 23.9993 263.34 23.8507C263.453 23.8411 263.558 23.7326 263.655 23.525C263.779 23.315 263.833 23.111 263.817 22.913C263.798 22.6867 263.818 22.4285 263.879 22.1384C263.969 21.846 264.065 21.6384 264.169 21.5157C264.157 21.3743 264.2 21.2139 264.299 21.0346C264.398 20.8553 264.443 20.7091 264.433 20.5959C264.423 20.4828 264.443 20.3814 264.493 20.2917C264.571 20.1997 264.605 20.0971 264.595 19.984C264.811 19.5098 265.081 18.8176 265.403 17.9072C265.751 16.9661 266.081 15.9838 266.393 14.9602C266.734 13.9343 267.014 13.0274 267.232 12.2397C267.45 11.452 267.552 10.9733 267.538 10.8036C267.576 10.5725 267.643 10.3532 267.739 10.1456C267.835 9.93801 267.999 9.85296 268.23 9.89043C268.336 9.79601 268.502 9.73925 268.729 9.72015C268.953 9.67275 269.121 9.64427 269.234 9.63472C269.234 9.63472 269.366 9.68055 269.631 9.77222C269.895 9.86388 270.135 10.0145 270.352 10.2241C270.596 10.403 270.746 10.661 270.802 10.9981C270.859 11.3352 270.902 11.6735 270.931 12.0129C270.948 12.5528 270.801 13.1778 270.491 13.8878C270.18 14.5977 269.833 15.382 269.45 16.2406C269.213 16.802 268.973 17.3351 268.73 17.8399C268.516 18.3423 268.414 18.6501 268.424 18.7633C268.433 18.8764 268.391 19.0509 268.297 19.2868C268.203 19.5227 268.1 19.8163 267.987 20.1677C267.841 20.4649 267.7 20.8187 267.563 21.2291C267.455 21.6371 267.359 22.0156 267.275 22.3646C267.188 22.6854 267.148 22.8882 267.155 22.9731C267.136 23.0886 267.104 23.2053 267.057 23.3233C267.038 23.4388 266.977 23.5579 266.873 23.6807C266.76 23.6902 266.696 23.781 266.682 23.9532C266.694 24.0946 266.7 24.1653 266.7 24.1653C266.71 24.2785 266.662 24.5532 266.556 24.9895C266.476 25.3951 266.319 25.8927 266.084 26.4824C265.673 28.0271 265.393 29.2616 265.243 30.186C265.09 31.0821 265.012 31.8437 265.008 32.4708C265.009 33.1546 264.893 33.6345 264.66 33.9106C264.424 34.1584 264.198 34.3484 263.981 34.4807ZM262.287 41.2478C261.713 41.5243 261.226 41.6651 260.827 41.6702C260.431 41.7036 259.977 41.5568 259.465 41.2296C258.852 40.7116 258.606 40.1625 258.728 39.5824C258.876 38.9716 259.337 38.3629 260.112 37.7561C260.647 37.3406 261.042 37.1221 261.296 37.1006C261.577 37.0484 261.995 37.1128 262.552 37.2937C263.564 37.8066 264.044 38.4356 263.993 39.1806C263.94 39.8974 263.371 40.5865 262.287 41.2478Z" fill="#99CC00"/>
</svg>
