<svg width="285" height="240" viewBox="0 0 285 240" fill="none" xmlns="http://www.w3.org/2000/svg">
<path d="M216.45 53.7939C208.546 50.5843 195.288 46.3475 186.365 43.523C183.305 32.7386 174.636 24.5218 163.928 22.0825C166.987 21.5689 169.537 21.0554 171.577 20.2851C177.186 18.2309 177.823 13.8657 177.823 12.1967C177.823 6.41932 172.851 2.56773 162.78 0.513546C161.123 0.128386 159.466 0 157.936 0C150.542 0 139.834 3.59482 131.292 20.6702C130.273 22.7244 130.273 25.0354 131.165 27.0895C127.341 24.265 122.879 22.4676 118.162 21.6973C122.114 19.3864 124.408 16.6902 124.281 12.7103C123.899 6.16255 116.122 3.97998 112.68 3.08128C110.768 2.56773 108.728 2.31096 106.816 2.31096C95.98 2.31096 86.2914 10.7845 79.5349 26.1908C78.515 28.6302 78.6425 31.3263 80.0448 33.5089C81.4471 35.6914 83.8693 36.9753 86.4189 36.9753H86.5464C84.1242 41.4688 82.5944 46.6043 82.5944 51.9965C82.5944 53.4088 82.7219 54.821 82.8494 56.2333C81.8296 56.2333 80.8097 56.2333 79.9173 56.2333C74.1807 56.2333 72.141 56.4901 71.1211 56.7468C67.5516 57.5171 64.747 59.4429 62.8348 62.5242C59.3928 68.1732 59.2653 76.9035 62.7073 90.1273C67.1692 107.588 69.0814 111.183 75.328 113.237C75.4555 113.237 75.583 113.365 75.7104 113.365C77.4952 114.007 82.5944 114.649 87.1838 115.034C87.1838 117.088 87.3113 118.886 87.5662 120.427L85.0166 126.974C84.8891 126.974 84.7616 126.974 84.7616 126.974C84.7616 126.974 84.7616 126.974 84.6342 126.974C81.7021 126.974 78.8975 128.258 76.9853 130.441C74.9455 132.623 73.9257 135.576 74.1807 138.529C74.6906 145.077 78.6425 155.604 81.8296 164.078L82.0845 164.848C86.5464 176.788 89.9884 179.869 92.538 181.282C96.8724 183.593 103.756 184.106 121.986 184.106C126.193 184.106 131.037 184.106 136.647 184.106C143.148 184.106 150.67 184.106 159.211 183.978H159.338C160.486 183.978 161.761 183.978 162.908 183.978C164.055 183.978 165.203 183.978 166.35 183.978C167.752 183.978 169.155 183.978 170.429 183.978C171.704 183.978 172.851 183.978 174.126 183.978C180.883 183.978 190.189 183.978 194.013 176.917C195.416 174.349 198.348 167.416 200.515 160.611C204.594 147.901 204.085 143.664 202.045 140.712C199.368 136.988 194.651 136.218 190.699 135.576C192.866 131.725 195.926 126.332 198.858 120.94C201.535 116.19 204.212 111.439 206.507 107.459C215.048 92.1815 223.079 70.8693 223.334 69.9706C226.011 63.4229 222.824 56.3617 216.45 53.7939ZM73.7982 105.277C74.0532 105.662 74.1807 105.919 74.4356 106.176C74.3081 105.919 74.0532 105.662 73.7982 105.277ZM136.519 23.238C139.579 17.2038 146.335 5.77739 157.936 5.77739C159.083 5.77739 160.358 5.90578 161.761 6.16255C169.537 7.70319 172.087 10.0141 172.087 12.0683C172.087 15.6632 165.458 15.4064 154.112 17.8457C147.228 19.3864 142.383 22.8528 138.686 25.1638C138.431 25.2921 138.176 25.4205 137.922 25.4205C136.774 25.5489 135.882 24.3934 136.519 23.238ZM84.8891 28.5018C88.5861 20.1567 95.8525 8.08835 106.943 8.08835C108.346 8.08835 109.748 8.21673 111.278 8.73028C128.87 13.609 110.385 18.7444 99.932 23.238C95.3426 25.1638 91.0082 28.245 87.8212 30.6844C87.4388 30.9411 87.0563 31.0695 86.6739 31.0695C85.2716 31.0695 84.2517 29.9141 84.8891 28.5018ZM84.7616 132.752C84.8891 132.752 84.8891 132.752 85.0166 132.752C85.0166 132.88 84.8891 132.752 84.7616 132.752ZM122.241 178.2C122.114 178.2 121.986 178.2 121.859 178.2C122.241 178.2 122.624 178.2 123.006 178.2C122.751 178.2 122.496 178.2 122.241 178.2ZM174.381 178.072C174.254 178.072 174.254 178.072 174.126 178.072C174.254 178.072 174.381 178.072 174.381 178.072Z" fill="white"/>
<path d="M96.8723 121.068L89.7334 133.393L89.6059 133.778C89.7334 133.778 89.8608 133.906 89.9883 133.906C97.5097 136.346 133.587 138.657 140.471 138.015C147.355 137.501 166.732 101.168 166.477 98.7286C166.35 96.2892 154.239 96.4176 143.913 97.3163C138.814 97.7015 136.647 102.709 135.754 105.276C135.372 106.432 134.479 107.33 133.332 107.716C125.428 110.797 108.983 110.669 95.8525 109.77C95.725 114.649 95.5975 119.656 96.8723 121.068Z" fill="white"/>
<path d="M214.283 59.1852C202.3 54.4349 177.313 46.7317 177.313 46.7317C177.313 46.7317 169.664 30.0415 155.386 30.0415C141.108 30.0415 135.117 43.1369 135.117 43.1369C135.117 43.1369 132.057 29.9131 109.238 29.9131C90.8807 29.9131 88.586 54.0497 91.5181 62.2665C91.5181 62.2665 75.8379 61.6245 72.3958 62.3949C68.9538 63.1652 62.7072 66.2465 68.4439 88.7141C73.1607 107.33 74.4356 106.688 77.7501 107.844C80.6822 108.871 116.505 112.851 131.547 108.614C133.715 107.972 135.499 106.431 136.392 104.249C137.412 101.553 139.706 97.7012 144.168 97.4444C154.622 96.6741 166.605 96.5457 166.732 98.8566C166.86 101.296 148.63 138.015 141.746 138.528C134.862 139.042 97.6372 136.217 90.2433 133.906C88.3311 133.264 86.6738 133.007 85.399 132.879C82.4669 132.622 80.2997 135.447 81.1921 138.271C84.6341 148.671 92.7929 174.605 95.5975 175.889C100.697 178.456 145.825 177.943 159.593 178.071C173.871 178.199 186.747 178.328 189.424 174.091C192.101 169.854 200.005 146.873 197.838 144.177C195.671 141.481 181.648 143.278 181.265 139.812C180.883 136.345 195.543 115.932 201.917 104.762C210.331 89.7412 218.362 68.0439 218.362 68.0439C219.382 64.4491 217.725 60.5975 214.283 59.1852Z" fill="white"/>
<path d="M87.6935 30.6849C86.1637 31.8404 84.124 30.1713 84.8889 28.5023C88.9683 19.1301 97.7646 5.00758 111.15 8.6024C128.743 13.4811 110.258 18.6165 99.8043 23.1101C95.2149 25.1643 90.8806 28.2455 87.6935 30.6849Z" fill="#99CC00"/>
<path d="M138.686 25.2914C137.412 26.1901 135.754 24.6495 136.519 23.2372C139.834 16.5612 147.738 3.33734 161.761 6.16184C169.537 7.70248 172.087 10.0134 172.087 12.0676C172.087 15.6624 165.458 15.4057 154.112 17.845C147.228 19.3857 142.256 22.9805 138.686 25.2914Z" fill="#99CC00"/>
<path d="M214.283 59.1865C205.359 55.5916 189.169 50.4562 181.52 48.0168C179.608 36.2053 169.409 27.0898 157.044 27.0898C147.61 27.0898 139.451 32.4821 135.244 40.1853C131.037 32.3537 122.879 27.0898 113.445 27.0898C99.8044 27.0898 88.586 38.2595 88.586 52.1252C88.586 55.8484 89.3509 59.3148 90.8807 62.3961C89.0959 62.3961 84.3791 62.1394 80.1722 62.1394C76.8577 62.1394 73.7981 62.2677 72.5233 62.5245C69.0813 63.2948 62.8347 66.3761 68.5714 88.8437C73.2882 107.46 74.563 106.818 77.8775 107.973C79.0249 108.358 85.3989 109.257 93.5578 109.899C93.1753 114.264 93.1753 118.501 94.0677 121.069L89.0959 133.522C88.4585 133.394 86.0364 133.009 85.0165 133.009C82.3394 133.009 80.0447 135.448 80.2997 138.273C80.8096 144.178 84.889 154.834 87.8211 162.923C90.6257 170.498 93.3028 174.991 95.5975 176.275C100.697 178.971 115.357 178.329 159.593 178.201C162.015 178.201 164.565 178.201 166.86 178.201C177.951 178.201 186.874 178.971 189.424 174.221C191.846 169.856 200.387 147.773 197.838 144.307C194.651 139.942 180.628 142.894 183.432 137.631C185.09 134.421 195.543 116.062 201.917 104.764C210.331 89.7425 218.362 68.0451 218.362 68.0451C219.382 64.4503 217.725 60.5987 214.283 59.1865ZM95.725 130.826C96.1074 129.927 96.8723 128.002 97.7647 127.488C101.717 125.049 105.669 124.278 109.875 122.995C110.768 122.738 110.768 121.454 109.62 121.326C106.306 121.197 102.609 120.684 100.952 119.528C99.8044 118.758 99.2945 117.474 99.2945 116.19C99.2945 114.521 99.2945 112.467 99.5494 110.284C103.629 110.541 107.198 110.541 111.405 110.541C120.456 110.541 128.998 109.899 133.842 107.717C134.862 107.331 135.499 106.433 135.882 105.534C136.647 102.966 138.941 97.8308 144.041 97.4456C148.12 97.1889 152.327 96.9321 156.024 96.9321C161.888 96.9321 166.477 97.4456 166.605 98.8579C166.732 99.885 163.035 107.331 158.191 115.291C158.191 115.291 145.57 124.792 133.46 123.123C132.695 122.995 132.312 124.022 132.95 124.407C136.647 126.975 143.658 130.955 149.012 129.157H149.14C145.698 133.907 142.383 137.245 140.344 137.374C139.451 137.502 138.049 137.502 136.264 137.502C114.592 137.887 94.3227 134.421 94.3227 134.421L95.725 130.826ZM88.331 140.583C98.912 142.638 125.811 144.692 140.981 144.05C145.06 143.922 150.415 140.84 161.888 122.353C169.664 109.642 173.616 101.554 173.361 98.3443C172.724 90.256 162.398 90.256 156.279 90.256C151.689 90.256 146.973 90.5128 143.786 90.7695C136.774 91.2831 132.695 96.4185 130.655 101.169C130.4 101.811 129.89 102.196 129.253 102.453C126.321 103.223 120.966 103.993 111.533 103.993C107.581 103.993 94.7051 103.351 81.3195 101.682C80.0447 101.554 78.8974 100.655 78.3875 99.3714C77.6226 97.3173 76.4752 93.594 74.818 87.1747C70.9935 72.2819 73.0332 69.5858 73.5432 69.0722C74.308 68.3019 75.3279 68.5587 80.1722 68.5587C85.5264 68.5587 91.5181 68.9438 91.6455 68.9438C94.0677 69.0722 95.47 69.2006 95.47 69.2006C99.9319 73.9509 106.306 77.0322 113.445 77.0322C122.879 77.0322 131.037 71.64 135.244 63.9368C139.451 71.7683 147.61 77.0322 157.044 77.0322C169.664 77.0322 180.245 67.4032 181.648 55.0781C181.648 55.0781 191.974 57.5174 208.164 64.0652C210.331 64.9639 211.223 67.2748 210.458 69.4574C207.526 78.4444 201.535 90.7695 195.926 101.554C184.325 123.893 174.891 136.475 174.509 140.583C173.871 147.003 182.03 147.131 187.767 148.03C189.551 148.287 190.954 148.287 191.081 149.571C191.336 151.496 187.384 162.024 185.472 166.903C184.58 169.085 182.54 170.883 180.245 171.139C172.724 171.91 107.453 172.68 101.207 170.626C100.187 170.241 99.2945 169.856 98.5296 169.085C94.8326 165.234 88.9684 151.24 87.6936 141.739C87.4387 140.584 88.331 140.583 88.331 140.583Z" fill="#99CC00"/>
<path d="M113.318 69.9702C123.174 69.9702 131.165 61.9229 131.165 51.9961C131.165 42.0693 123.174 34.022 113.318 34.022C103.461 34.022 95.4701 42.0693 95.4701 51.9961C95.4701 61.9229 103.461 69.9702 113.318 69.9702Z" fill="white"/>
<path d="M157.044 69.9702C166.901 69.9702 174.891 61.9229 174.891 51.9961C174.891 42.0693 166.901 34.022 157.044 34.022C147.187 34.022 139.196 42.0693 139.196 51.9961C139.196 61.9229 147.187 69.9702 157.044 69.9702Z" fill="white"/>
<path d="M113.318 60.4689C117.542 60.4689 120.966 57.02 120.966 52.7657C120.966 48.5113 117.542 45.0625 113.318 45.0625C109.093 45.0625 105.669 48.5113 105.669 52.7657C105.669 57.02 109.093 60.4689 113.318 60.4689Z" fill="#99CC00"/>
<path d="M157.044 60.4689C161.268 60.4689 164.693 57.02 164.693 52.7657C164.693 48.5113 161.268 45.0625 157.044 45.0625C152.819 45.0625 149.395 48.5113 149.395 52.7657C149.395 57.02 152.819 60.4689 157.044 60.4689Z" fill="#99CC00"/>
<path d="M24.5865 233.762V238.264H-1.52588e-05V234.662L16.9871 213.84H0.335259V209.338H24.0277V212.94L7.04068 233.762H24.5865Z" fill="white"/>
<path d="M34.6447 236.8C32.2978 235.562 30.3979 233.761 29.0568 231.51C27.7157 229.259 27.0452 226.67 27.0452 223.857C27.0452 221.043 27.7157 218.454 29.0568 216.203C30.3979 213.952 32.2978 212.151 34.6447 210.913C36.9916 209.675 39.6737 209 42.5794 209C45.4851 209 48.1673 209.675 50.5142 210.913C52.8611 212.151 54.7609 213.952 56.102 216.203C57.4431 218.454 58.1136 221.043 58.1136 223.857C58.1136 226.67 57.4431 229.259 56.102 231.51C54.7609 233.761 52.8611 235.562 50.5142 236.8C48.1673 238.038 45.4851 238.713 42.5794 238.713C39.6737 238.713 36.9916 238.038 34.6447 236.8ZM47.7202 232.636C49.2848 231.735 50.5142 230.497 51.2965 229.034C52.1905 227.458 52.6375 225.77 52.6375 223.744C52.6375 221.831 52.1905 220.03 51.2965 218.454C50.4024 216.879 49.1731 215.64 47.7202 214.853C46.1556 213.952 44.4793 213.502 42.5794 213.502C40.6795 213.502 38.8914 213.952 37.4386 214.853C35.874 215.753 34.6447 216.991 33.8624 218.454C32.9683 220.03 32.5213 221.718 32.5213 223.744C32.5213 225.657 32.9683 227.458 33.8624 229.034C34.7564 230.61 35.9857 231.848 37.4386 232.636C39.0032 233.536 40.6795 233.986 42.5794 233.986C44.4793 233.986 46.1556 233.536 47.7202 232.636Z" fill="white"/>
<path d="M82.5885 238.264L76.6653 229.823C76.4418 229.823 75.9948 229.823 75.5478 229.823H69.0659V238.264H63.7015V209.338H75.5478C78.0064 209.338 80.2416 209.789 82.0297 210.576C83.9295 211.364 85.2706 212.602 86.2764 214.178C87.2823 215.754 87.7293 217.555 87.7293 219.693C87.7293 221.831 87.1705 223.745 86.1647 225.321C85.1589 226.896 83.5943 228.022 81.5826 228.81L88.1763 238.376H82.5885V238.264ZM80.6886 215.304C79.4593 214.291 77.6711 213.84 75.436 213.84H69.1776V225.433H75.436C77.7829 225.433 79.571 224.983 80.6886 223.97C81.9179 222.957 82.4767 221.494 82.4767 219.693C82.4767 217.892 81.9179 216.316 80.6886 215.304Z" fill="white"/>
<path d="M113.545 223.519H118.574V235.112C117.121 236.35 115.333 237.25 113.433 237.813C111.422 238.488 109.41 238.713 107.398 238.713C104.493 238.713 101.811 238.038 99.4637 236.8C97.1168 235.562 95.217 233.761 93.8759 231.51C92.5348 229.259 91.8643 226.67 91.8643 223.857C91.8643 221.043 92.5348 218.454 93.8759 216.203C95.217 213.952 97.1168 212.151 99.4637 210.913C101.811 209.675 104.493 209 107.51 209C109.969 209 112.092 209.45 114.104 210.238C116.116 211.026 117.792 212.264 119.133 213.727L115.78 216.991C113.545 214.74 110.975 213.727 107.846 213.727C105.834 213.727 104.046 214.177 102.481 214.965C100.917 215.866 99.6873 216.991 98.7932 218.567C97.8991 220.142 97.4521 221.831 97.4521 223.857C97.4521 225.77 97.8991 227.571 98.7932 229.034C99.6873 230.61 100.917 231.848 102.481 232.636C104.046 233.536 105.834 233.986 107.846 233.986C110.081 233.986 112.092 233.536 113.769 232.523V223.519H113.545Z" fill="white"/>
<path d="M155.327 224.161H160.356V235.753C158.904 236.991 157.115 237.892 155.216 238.454C153.204 239.13 151.192 239.355 149.181 239.355C146.275 239.355 143.593 238.68 141.246 237.441C138.899 236.203 136.999 234.403 135.658 232.152C134.317 229.901 133.646 227.312 133.646 224.498C133.646 221.684 134.317 219.096 135.658 216.845C136.999 214.594 138.899 212.793 141.246 211.555C143.593 210.317 146.275 209.642 149.292 209.642C151.751 209.642 153.874 210.092 155.886 210.88C157.898 211.668 159.574 212.906 160.915 214.369L157.562 217.633C155.327 215.382 152.757 214.369 149.628 214.369C147.616 214.369 145.828 214.819 144.263 215.607C142.699 216.507 141.469 217.633 140.575 219.208C139.681 220.784 139.234 222.472 139.234 224.498C139.234 226.412 139.681 228.212 140.575 229.676C141.469 231.251 142.699 232.489 144.263 233.277C145.828 234.178 147.616 234.628 149.628 234.628C151.863 234.628 153.874 234.178 155.551 233.165V224.161H155.327Z" fill="white"/>
<path d="M186.172 232.264H171.756L168.962 239.017H163.486L176.449 209.979H181.702L194.666 239.017H189.078L186.172 232.264ZM184.384 227.987L178.908 215.269L173.544 227.987H184.384Z" fill="white"/>
<path d="M224.728 238.904V219.658L215.229 235.528H212.882L203.383 219.996V239.017H198.242V209.979H202.601L214 229.225L225.175 209.979H229.534V239.017H224.728V238.904Z" fill="white"/>
<path d="M257.808 234.402V238.904H236.239V209.979H257.25V214.481H241.604V222.022H255.462V226.411H241.604V234.402H257.808Z" fill="white"/>
<path d="M266.302 238.454C264.179 237.779 262.614 236.991 261.385 235.978L263.285 231.814C264.514 232.714 265.967 233.502 267.643 234.065C269.319 234.627 271.108 234.965 272.784 234.965C274.907 234.965 276.472 234.628 277.589 233.952C278.595 233.277 279.154 232.376 279.154 231.251C279.154 230.463 278.819 229.788 278.26 229.225C277.701 228.662 276.919 228.212 276.025 227.987C275.131 227.649 273.901 227.312 272.337 226.974C270.102 226.411 268.314 225.961 266.972 225.398C265.631 224.836 264.402 224.048 263.508 222.922C262.502 221.797 262.055 220.334 262.055 218.42C262.055 216.845 262.502 215.381 263.396 214.031C264.29 212.68 265.52 211.667 267.308 210.879C269.096 210.092 271.219 209.754 273.678 209.754C275.466 209.754 277.142 209.979 278.819 210.429C280.495 210.879 281.948 211.555 283.177 212.343L281.501 216.507C280.272 215.719 278.93 215.156 277.589 214.819C276.248 214.481 274.907 214.256 273.566 214.256C271.443 214.256 269.878 214.594 268.872 215.381C267.867 216.057 267.308 217.07 267.308 218.195C267.308 218.983 267.643 219.658 268.202 220.221C268.761 220.784 269.543 221.121 270.437 221.459C271.331 221.797 272.56 222.134 274.125 222.472C276.248 222.922 278.036 223.485 279.378 224.048C280.719 224.611 281.948 225.398 282.842 226.524C283.848 227.649 284.295 229.113 284.295 231.026C284.295 232.602 283.848 234.065 282.954 235.415C282.06 236.766 280.83 237.779 279.042 238.567C277.254 239.355 275.131 239.692 272.672 239.692C270.437 239.355 268.314 239.017 266.302 238.454Z" fill="white"/>
</svg>
